<mxfile host="app.diagrams.net" agent="Mozilla/5.0 (Windows NT 10.0; Win64; x64) AppleWebKit/537.36 (KHTML, like Gecko) Chrome/136.0.0.0 YaBrowser/25.6.0.0 Safari/537.36" version="28.0.4">
  <diagram name="Страница — 1" id="bOnJ1UkMssPLF6kGeLJA">
    <mxGraphModel dx="3021" dy="1277" grid="1" gridSize="10" guides="1" tooltips="1" connect="1" arrows="1" fold="1" page="1" pageScale="1" pageWidth="827" pageHeight="1169" math="0" shadow="0">
      <root>
        <mxCell id="0" />
        <mxCell id="1" parent="0" />
        <mxCell id="w7kY199S7oR7jgKgoo_Y-20" value="" style="edgeStyle=orthogonalEdgeStyle;fontSize=12;html=1;endArrow=ERmany;rounded=0;exitX=0;exitY=0.5;exitDx=0;exitDy=0;endFill=0;strokeColor=default;strokeWidth=2;startArrow=ERone;startFill=0;" parent="1" source="w7kY199S7oR7jgKgoo_Y-22" edge="1">
          <mxGeometry width="100" height="100" relative="1" as="geometry">
            <mxPoint x="310" y="720" as="sourcePoint" />
            <mxPoint x="-380" y="740" as="targetPoint" />
            <Array as="points">
              <mxPoint x="-480" y="1289" />
              <mxPoint x="-480" y="740" />
            </Array>
          </mxGeometry>
        </mxCell>
        <mxCell id="w7kY199S7oR7jgKgoo_Y-126" value="" style="edgeStyle=orthogonalEdgeStyle;fontSize=12;html=1;endArrow=ERmany;rounded=0;entryX=0;entryY=0.5;entryDx=0;entryDy=0;strokeWidth=2;startArrow=ERone;startFill=0;endFill=0;" parent="1" target="w7kY199S7oR7jgKgoo_Y-48" edge="1">
          <mxGeometry width="100" height="100" relative="1" as="geometry">
            <mxPoint x="270" y="1060" as="sourcePoint" />
            <mxPoint x="550" y="590" as="targetPoint" />
            <Array as="points">
              <mxPoint x="340" y="1060" />
              <mxPoint x="340" y="1105" />
            </Array>
          </mxGeometry>
        </mxCell>
        <mxCell id="w7kY199S7oR7jgKgoo_Y-130" value="" style="edgeStyle=orthogonalEdgeStyle;fontSize=12;html=1;endArrow=ERmandOne;startArrow=ERmandOne;rounded=0;entryX=1;entryY=0.5;entryDx=0;entryDy=0;strokeWidth=2;" parent="1" target="w7kY199S7oR7jgKgoo_Y-87" edge="1">
          <mxGeometry width="100" height="100" relative="1" as="geometry">
            <mxPoint x="400" y="390" as="sourcePoint" />
            <mxPoint x="793" y="360" as="targetPoint" />
            <Array as="points">
              <mxPoint x="300" y="390" />
              <mxPoint x="300" y="365" />
            </Array>
          </mxGeometry>
        </mxCell>
        <mxCell id="rPi9T-fH075kp2shHSyl-13" value="" style="group" parent="1" vertex="1" connectable="0">
          <mxGeometry x="-100" y="1260" width="200" height="250.01" as="geometry" />
        </mxCell>
        <mxCell id="w7kY199S7oR7jgKgoo_Y-21" value="&lt;span style=&quot;font-weight: 400; text-wrap-mode: wrap;&quot;&gt;Users&lt;/span&gt;" style="shape=table;startSize=30;container=1;collapsible=1;childLayout=tableLayout;fixedRows=1;rowLines=0;fontStyle=1;align=center;resizeLast=1;html=1;" parent="rPi9T-fH075kp2shHSyl-13" vertex="1">
          <mxGeometry y="-15.62" width="200" height="266" as="geometry" />
        </mxCell>
        <mxCell id="w7kY199S7oR7jgKgoo_Y-22" value="" style="shape=tableRow;horizontal=0;startSize=0;swimlaneHead=0;swimlaneBody=0;fillColor=none;collapsible=0;dropTarget=0;points=[[0,0.5],[1,0.5]];portConstraint=eastwest;top=0;left=0;right=0;bottom=1;" parent="w7kY199S7oR7jgKgoo_Y-21" vertex="1">
          <mxGeometry y="30" width="200" height="30" as="geometry" />
        </mxCell>
        <mxCell id="w7kY199S7oR7jgKgoo_Y-23" value="PK" style="shape=partialRectangle;connectable=0;fillColor=none;top=0;left=0;bottom=0;right=0;fontStyle=1;overflow=hidden;whiteSpace=wrap;html=1;" parent="w7kY199S7oR7jgKgoo_Y-22" vertex="1">
          <mxGeometry width="30" height="30" as="geometry">
            <mxRectangle width="30" height="30" as="alternateBounds" />
          </mxGeometry>
        </mxCell>
        <mxCell id="w7kY199S7oR7jgKgoo_Y-24" value="&lt;span style=&quot;font-weight: 400;&quot;&gt;Id&lt;/span&gt;" style="shape=partialRectangle;connectable=0;fillColor=none;top=0;left=0;bottom=0;right=0;align=left;spacingLeft=6;fontStyle=5;overflow=hidden;whiteSpace=wrap;html=1;" parent="w7kY199S7oR7jgKgoo_Y-22" vertex="1">
          <mxGeometry x="30" width="170" height="30" as="geometry">
            <mxRectangle width="170" height="30" as="alternateBounds" />
          </mxGeometry>
        </mxCell>
        <mxCell id="w7kY199S7oR7jgKgoo_Y-25" value="" style="shape=tableRow;horizontal=0;startSize=0;swimlaneHead=0;swimlaneBody=0;fillColor=none;collapsible=0;dropTarget=0;points=[[0,0.5],[1,0.5]];portConstraint=eastwest;top=0;left=0;right=0;bottom=0;" parent="w7kY199S7oR7jgKgoo_Y-21" vertex="1">
          <mxGeometry y="60" width="200" height="30" as="geometry" />
        </mxCell>
        <mxCell id="w7kY199S7oR7jgKgoo_Y-26" value="" style="shape=partialRectangle;connectable=0;fillColor=none;top=0;left=0;bottom=0;right=0;editable=1;overflow=hidden;whiteSpace=wrap;html=1;" parent="w7kY199S7oR7jgKgoo_Y-25" vertex="1">
          <mxGeometry width="30" height="30" as="geometry">
            <mxRectangle width="30" height="30" as="alternateBounds" />
          </mxGeometry>
        </mxCell>
        <mxCell id="w7kY199S7oR7jgKgoo_Y-27" value="Name (varchar (20))" style="shape=partialRectangle;connectable=0;fillColor=none;top=0;left=0;bottom=0;right=0;align=left;spacingLeft=6;overflow=hidden;whiteSpace=wrap;html=1;" parent="w7kY199S7oR7jgKgoo_Y-25" vertex="1">
          <mxGeometry x="30" width="170" height="30" as="geometry">
            <mxRectangle width="170" height="30" as="alternateBounds" />
          </mxGeometry>
        </mxCell>
        <mxCell id="w7kY199S7oR7jgKgoo_Y-28" value="" style="shape=tableRow;horizontal=0;startSize=0;swimlaneHead=0;swimlaneBody=0;fillColor=none;collapsible=0;dropTarget=0;points=[[0,0.5],[1,0.5]];portConstraint=eastwest;top=0;left=0;right=0;bottom=0;" parent="w7kY199S7oR7jgKgoo_Y-21" vertex="1">
          <mxGeometry y="90" width="200" height="30" as="geometry" />
        </mxCell>
        <mxCell id="w7kY199S7oR7jgKgoo_Y-29" value="" style="shape=partialRectangle;connectable=0;fillColor=none;top=0;left=0;bottom=0;right=0;editable=1;overflow=hidden;whiteSpace=wrap;html=1;" parent="w7kY199S7oR7jgKgoo_Y-28" vertex="1">
          <mxGeometry width="30" height="30" as="geometry">
            <mxRectangle width="30" height="30" as="alternateBounds" />
          </mxGeometry>
        </mxCell>
        <mxCell id="w7kY199S7oR7jgKgoo_Y-30" value="" style="shape=partialRectangle;connectable=0;fillColor=none;top=0;left=0;bottom=0;right=0;align=left;spacingLeft=6;overflow=hidden;whiteSpace=wrap;html=1;" parent="w7kY199S7oR7jgKgoo_Y-28" vertex="1">
          <mxGeometry x="30" width="170" height="30" as="geometry">
            <mxRectangle width="170" height="30" as="alternateBounds" />
          </mxGeometry>
        </mxCell>
        <mxCell id="w7kY199S7oR7jgKgoo_Y-31" value="" style="shape=tableRow;horizontal=0;startSize=0;swimlaneHead=0;swimlaneBody=0;fillColor=none;collapsible=0;dropTarget=0;points=[[0,0.5],[1,0.5]];portConstraint=eastwest;top=0;left=0;right=0;bottom=0;" parent="w7kY199S7oR7jgKgoo_Y-21" vertex="1">
          <mxGeometry y="120" width="200" height="146" as="geometry" />
        </mxCell>
        <mxCell id="w7kY199S7oR7jgKgoo_Y-32" value="" style="shape=partialRectangle;connectable=0;fillColor=none;top=0;left=0;bottom=0;right=0;editable=1;overflow=hidden;whiteSpace=wrap;html=1;" parent="w7kY199S7oR7jgKgoo_Y-31" vertex="1">
          <mxGeometry width="30" height="146" as="geometry">
            <mxRectangle width="30" height="146" as="alternateBounds" />
          </mxGeometry>
        </mxCell>
        <mxCell id="w7kY199S7oR7jgKgoo_Y-33" value="" style="shape=partialRectangle;connectable=0;fillColor=none;top=0;left=0;bottom=0;right=0;align=left;spacingLeft=6;overflow=hidden;whiteSpace=wrap;html=1;" parent="w7kY199S7oR7jgKgoo_Y-31" vertex="1">
          <mxGeometry x="30" width="170" height="146" as="geometry">
            <mxRectangle width="170" height="146" as="alternateBounds" />
          </mxGeometry>
        </mxCell>
        <mxCell id="rPi9T-fH075kp2shHSyl-1" value="Genre (boolean&lt;span style=&quot;background-color: transparent; color: light-dark(rgb(0, 0, 0), rgb(255, 255, 255));&quot;&gt;)&lt;/span&gt;" style="shape=partialRectangle;connectable=0;fillColor=none;top=0;left=0;bottom=0;right=0;align=left;spacingLeft=6;overflow=hidden;whiteSpace=wrap;html=1;" parent="rPi9T-fH075kp2shHSyl-13" vertex="1">
          <mxGeometry x="30" y="69.995" width="150" height="23.4375" as="geometry">
            <mxRectangle width="150" height="30" as="alternateBounds" />
          </mxGeometry>
        </mxCell>
        <mxCell id="rPi9T-fH075kp2shHSyl-2" value="DateBirth (Date)" style="shape=partialRectangle;connectable=0;fillColor=none;top=0;left=0;bottom=0;right=0;align=left;spacingLeft=6;overflow=hidden;whiteSpace=wrap;html=1;" parent="rPi9T-fH075kp2shHSyl-13" vertex="1">
          <mxGeometry x="30" y="90" width="150" height="23.4375" as="geometry">
            <mxRectangle width="150" height="30" as="alternateBounds" />
          </mxGeometry>
        </mxCell>
        <mxCell id="rPi9T-fH075kp2shHSyl-3" value="Height (int)" style="shape=partialRectangle;connectable=0;fillColor=none;top=0;left=0;bottom=0;right=0;align=left;spacingLeft=6;overflow=hidden;whiteSpace=wrap;html=1;" parent="rPi9T-fH075kp2shHSyl-13" vertex="1">
          <mxGeometry x="30" y="113.28999999999999" width="150" height="23.4375" as="geometry">
            <mxRectangle width="150" height="30" as="alternateBounds" />
          </mxGeometry>
        </mxCell>
        <mxCell id="rPi9T-fH075kp2shHSyl-4" value="Weight (decimal (4,2))" style="shape=partialRectangle;connectable=0;fillColor=none;top=0;left=0;bottom=0;right=0;align=left;spacingLeft=6;overflow=hidden;whiteSpace=wrap;html=1;" parent="rPi9T-fH075kp2shHSyl-13" vertex="1">
          <mxGeometry x="30" y="136.725" width="150" height="23.4375" as="geometry">
            <mxRectangle width="150" height="30" as="alternateBounds" />
          </mxGeometry>
        </mxCell>
        <mxCell id="rPi9T-fH075kp2shHSyl-6" value="PhoneNumber (varchar (12&lt;span style=&quot;background-color: transparent; color: light-dark(rgb(0, 0, 0), rgb(255, 255, 255));&quot;&gt;))&lt;/span&gt;" style="shape=partialRectangle;connectable=0;fillColor=none;top=0;left=0;bottom=0;right=0;align=left;spacingLeft=6;overflow=hidden;whiteSpace=wrap;html=1;" parent="rPi9T-fH075kp2shHSyl-13" vertex="1">
          <mxGeometry x="30" y="179.7" width="170" height="23.44" as="geometry">
            <mxRectangle width="150" height="30" as="alternateBounds" />
          </mxGeometry>
        </mxCell>
        <mxCell id="rPi9T-fH075kp2shHSyl-7" value="Promocode (varchar (20))" style="shape=partialRectangle;connectable=0;fillColor=none;top=0;left=0;bottom=0;right=0;align=left;spacingLeft=6;overflow=hidden;whiteSpace=wrap;html=1;" parent="rPi9T-fH075kp2shHSyl-13" vertex="1">
          <mxGeometry x="30" y="203.135" width="160" height="23.4375" as="geometry">
            <mxRectangle width="150" height="30" as="alternateBounds" />
          </mxGeometry>
        </mxCell>
        <mxCell id="rPi9T-fH075kp2shHSyl-15" value="ConfirmationCode (int)" style="shape=partialRectangle;connectable=0;fillColor=none;top=0;left=0;bottom=0;right=0;align=left;spacingLeft=6;overflow=hidden;whiteSpace=wrap;html=1;" parent="rPi9T-fH075kp2shHSyl-13" vertex="1">
          <mxGeometry x="30" y="226.575" width="160" height="23.4375" as="geometry">
            <mxRectangle width="150" height="30" as="alternateBounds" />
          </mxGeometry>
        </mxCell>
        <mxCell id="rPi9T-fH075kp2shHSyl-5" value="Email (varchar (40))" style="shape=partialRectangle;connectable=0;fillColor=none;top=0;left=0;bottom=0;right=0;align=left;spacingLeft=6;overflow=hidden;whiteSpace=wrap;html=1;" parent="rPi9T-fH075kp2shHSyl-13" vertex="1">
          <mxGeometry x="30" y="156.26499999999987" width="150" height="23.4375" as="geometry">
            <mxRectangle width="150" height="30" as="alternateBounds" />
          </mxGeometry>
        </mxCell>
        <mxCell id="rPi9T-fH075kp2shHSyl-14" value="" style="group" parent="1" vertex="1" connectable="0">
          <mxGeometry x="360" y="1060" width="250" height="200" as="geometry" />
        </mxCell>
        <mxCell id="w7kY199S7oR7jgKgoo_Y-47" value="&lt;span style=&quot;font-weight: 400; text-wrap-mode: wrap;&quot;&gt;Nutrients&lt;/span&gt;" style="shape=table;startSize=30;container=1;collapsible=1;childLayout=tableLayout;fixedRows=1;rowLines=0;fontStyle=1;align=center;resizeLast=1;html=1;" parent="rPi9T-fH075kp2shHSyl-14" vertex="1">
          <mxGeometry width="250" height="200" as="geometry" />
        </mxCell>
        <mxCell id="w7kY199S7oR7jgKgoo_Y-48" value="" style="shape=tableRow;horizontal=0;startSize=0;swimlaneHead=0;swimlaneBody=0;fillColor=none;collapsible=0;dropTarget=0;points=[[0,0.5],[1,0.5]];portConstraint=eastwest;top=0;left=0;right=0;bottom=1;" parent="w7kY199S7oR7jgKgoo_Y-47" vertex="1">
          <mxGeometry y="30" width="250" height="30" as="geometry" />
        </mxCell>
        <mxCell id="w7kY199S7oR7jgKgoo_Y-49" value="PK" style="shape=partialRectangle;connectable=0;fillColor=none;top=0;left=0;bottom=0;right=0;fontStyle=1;overflow=hidden;whiteSpace=wrap;html=1;" parent="w7kY199S7oR7jgKgoo_Y-48" vertex="1">
          <mxGeometry width="30" height="30" as="geometry">
            <mxRectangle width="30" height="30" as="alternateBounds" />
          </mxGeometry>
        </mxCell>
        <mxCell id="w7kY199S7oR7jgKgoo_Y-50" value="&lt;span style=&quot;font-weight: 400;&quot;&gt;Id&lt;/span&gt;" style="shape=partialRectangle;connectable=0;fillColor=none;top=0;left=0;bottom=0;right=0;align=left;spacingLeft=6;fontStyle=5;overflow=hidden;whiteSpace=wrap;html=1;" parent="w7kY199S7oR7jgKgoo_Y-48" vertex="1">
          <mxGeometry x="30" width="220" height="30" as="geometry">
            <mxRectangle width="220" height="30" as="alternateBounds" />
          </mxGeometry>
        </mxCell>
        <mxCell id="w7kY199S7oR7jgKgoo_Y-51" value="" style="shape=tableRow;horizontal=0;startSize=0;swimlaneHead=0;swimlaneBody=0;fillColor=none;collapsible=0;dropTarget=0;points=[[0,0.5],[1,0.5]];portConstraint=eastwest;top=0;left=0;right=0;bottom=0;" parent="w7kY199S7oR7jgKgoo_Y-47" vertex="1">
          <mxGeometry y="60" width="250" height="30" as="geometry" />
        </mxCell>
        <mxCell id="w7kY199S7oR7jgKgoo_Y-52" value="" style="shape=partialRectangle;connectable=0;fillColor=none;top=0;left=0;bottom=0;right=0;editable=1;overflow=hidden;whiteSpace=wrap;html=1;" parent="w7kY199S7oR7jgKgoo_Y-51" vertex="1">
          <mxGeometry width="30" height="30" as="geometry">
            <mxRectangle width="30" height="30" as="alternateBounds" />
          </mxGeometry>
        </mxCell>
        <mxCell id="w7kY199S7oR7jgKgoo_Y-53" value="Name (varchar (5&lt;span style=&quot;background-color: transparent; color: light-dark(rgb(0, 0, 0), rgb(255, 255, 255));&quot;&gt;0))&lt;/span&gt;" style="shape=partialRectangle;connectable=0;fillColor=none;top=0;left=0;bottom=0;right=0;align=left;spacingLeft=6;overflow=hidden;whiteSpace=wrap;html=1;" parent="w7kY199S7oR7jgKgoo_Y-51" vertex="1">
          <mxGeometry x="30" width="220" height="30" as="geometry">
            <mxRectangle width="220" height="30" as="alternateBounds" />
          </mxGeometry>
        </mxCell>
        <mxCell id="w7kY199S7oR7jgKgoo_Y-54" value="" style="shape=tableRow;horizontal=0;startSize=0;swimlaneHead=0;swimlaneBody=0;fillColor=none;collapsible=0;dropTarget=0;points=[[0,0.5],[1,0.5]];portConstraint=eastwest;top=0;left=0;right=0;bottom=0;" parent="w7kY199S7oR7jgKgoo_Y-47" vertex="1">
          <mxGeometry y="90" width="250" height="60" as="geometry" />
        </mxCell>
        <mxCell id="w7kY199S7oR7jgKgoo_Y-55" value="" style="shape=partialRectangle;connectable=0;fillColor=none;top=0;left=0;bottom=0;right=0;editable=1;overflow=hidden;whiteSpace=wrap;html=1;" parent="w7kY199S7oR7jgKgoo_Y-54" vertex="1">
          <mxGeometry width="30" height="60" as="geometry">
            <mxRectangle width="30" height="60" as="alternateBounds" />
          </mxGeometry>
        </mxCell>
        <mxCell id="w7kY199S7oR7jgKgoo_Y-56" value="" style="shape=partialRectangle;connectable=0;fillColor=none;top=0;left=0;bottom=0;right=0;align=left;spacingLeft=6;overflow=hidden;whiteSpace=wrap;html=1;" parent="w7kY199S7oR7jgKgoo_Y-54" vertex="1">
          <mxGeometry x="30" width="220" height="60" as="geometry">
            <mxRectangle width="220" height="60" as="alternateBounds" />
          </mxGeometry>
        </mxCell>
        <mxCell id="w7kY199S7oR7jgKgoo_Y-57" value="" style="shape=tableRow;horizontal=0;startSize=0;swimlaneHead=0;swimlaneBody=0;fillColor=none;collapsible=0;dropTarget=0;points=[[0,0.5],[1,0.5]];portConstraint=eastwest;top=0;left=0;right=0;bottom=0;" parent="w7kY199S7oR7jgKgoo_Y-47" vertex="1">
          <mxGeometry y="150" width="250" height="50" as="geometry" />
        </mxCell>
        <mxCell id="w7kY199S7oR7jgKgoo_Y-58" value="" style="shape=partialRectangle;connectable=0;fillColor=none;top=0;left=0;bottom=0;right=0;editable=1;overflow=hidden;whiteSpace=wrap;html=1;" parent="w7kY199S7oR7jgKgoo_Y-57" vertex="1">
          <mxGeometry width="30" height="50" as="geometry">
            <mxRectangle width="30" height="50" as="alternateBounds" />
          </mxGeometry>
        </mxCell>
        <mxCell id="w7kY199S7oR7jgKgoo_Y-59" value="" style="shape=partialRectangle;connectable=0;fillColor=none;top=0;left=0;bottom=0;right=0;align=left;spacingLeft=6;overflow=hidden;whiteSpace=wrap;html=1;" parent="w7kY199S7oR7jgKgoo_Y-57" vertex="1">
          <mxGeometry x="30" width="220" height="50" as="geometry">
            <mxRectangle width="220" height="50" as="alternateBounds" />
          </mxGeometry>
        </mxCell>
        <mxCell id="rPi9T-fH075kp2shHSyl-12" value="ConsumptionRecommendations (text)" style="shape=partialRectangle;connectable=0;fillColor=none;top=0;left=0;bottom=0;right=0;align=left;spacingLeft=6;overflow=hidden;whiteSpace=wrap;html=1;" parent="rPi9T-fH075kp2shHSyl-14" vertex="1">
          <mxGeometry x="30" y="159.99666666666667" width="210" height="23.75" as="geometry">
            <mxRectangle width="150" height="30" as="alternateBounds" />
          </mxGeometry>
        </mxCell>
        <mxCell id="rPi9T-fH075kp2shHSyl-10" value="ImportanceForHealth (text)" style="shape=partialRectangle;connectable=0;fillColor=none;top=0;left=0;bottom=0;right=0;align=left;spacingLeft=6;overflow=hidden;whiteSpace=wrap;html=1;" parent="rPi9T-fH075kp2shHSyl-14" vertex="1">
          <mxGeometry x="30" y="88.13" width="200" height="23.75" as="geometry">
            <mxRectangle width="150" height="30" as="alternateBounds" />
          </mxGeometry>
        </mxCell>
        <mxCell id="rPi9T-fH075kp2shHSyl-11" value="ManifestationOfDeficit (text&lt;span style=&quot;background-color: transparent; color: light-dark(rgb(0, 0, 0), rgb(255, 255, 255));&quot;&gt;)&lt;/span&gt;" style="shape=partialRectangle;connectable=0;fillColor=none;top=0;left=0;bottom=0;right=0;align=left;spacingLeft=6;overflow=hidden;whiteSpace=wrap;html=1;" parent="rPi9T-fH075kp2shHSyl-14" vertex="1">
          <mxGeometry x="30" y="111.88333333333333" width="200" height="23.75" as="geometry">
            <mxRectangle width="150" height="30" as="alternateBounds" />
          </mxGeometry>
        </mxCell>
        <mxCell id="pwiBvI5rpSsvWdqCSVei-5" value="&lt;span style=&quot;white-space-collapse: preserve;&quot; data-src-align=&quot;0:12&quot; class=&quot;aNeGP0gI0B9AV8JaHPyH&quot;&gt;Prevention&lt;/span&gt;&amp;nbsp;(text)" style="shape=partialRectangle;connectable=0;fillColor=none;top=0;left=0;bottom=0;right=0;align=left;spacingLeft=6;overflow=hidden;whiteSpace=wrap;html=1;" vertex="1" parent="rPi9T-fH075kp2shHSyl-14">
          <mxGeometry x="30" y="136.25" width="210" height="23.75" as="geometry">
            <mxRectangle width="150" height="30" as="alternateBounds" />
          </mxGeometry>
        </mxCell>
        <mxCell id="rPi9T-fH075kp2shHSyl-34" value="" style="group" parent="1" vertex="1" connectable="0">
          <mxGeometry x="-440" y="1030" width="290" height="200" as="geometry" />
        </mxCell>
        <mxCell id="rPi9T-fH075kp2shHSyl-35" value="&lt;span style=&quot;font-weight: 400; text-wrap-mode: wrap;&quot;&gt;Foods&lt;/span&gt;" style="shape=table;startSize=30;container=1;collapsible=1;childLayout=tableLayout;fixedRows=1;rowLines=0;fontStyle=1;align=center;resizeLast=1;html=1;" parent="rPi9T-fH075kp2shHSyl-34" vertex="1">
          <mxGeometry width="290" height="187.88163457022077" as="geometry" />
        </mxCell>
        <mxCell id="rPi9T-fH075kp2shHSyl-36" value="" style="shape=tableRow;horizontal=0;startSize=0;swimlaneHead=0;swimlaneBody=0;fillColor=none;collapsible=0;dropTarget=0;points=[[0,0.5],[1,0.5]];portConstraint=eastwest;top=0;left=0;right=0;bottom=1;" parent="rPi9T-fH075kp2shHSyl-35" vertex="1">
          <mxGeometry y="30" width="290" height="30" as="geometry" />
        </mxCell>
        <mxCell id="rPi9T-fH075kp2shHSyl-37" value="PK" style="shape=partialRectangle;connectable=0;fillColor=none;top=0;left=0;bottom=0;right=0;fontStyle=1;overflow=hidden;whiteSpace=wrap;html=1;" parent="rPi9T-fH075kp2shHSyl-36" vertex="1">
          <mxGeometry width="30" height="30" as="geometry">
            <mxRectangle width="30" height="30" as="alternateBounds" />
          </mxGeometry>
        </mxCell>
        <mxCell id="rPi9T-fH075kp2shHSyl-38" value="&lt;span style=&quot;font-weight: 400;&quot;&gt;Id&lt;/span&gt;" style="shape=partialRectangle;connectable=0;fillColor=none;top=0;left=0;bottom=0;right=0;align=left;spacingLeft=6;fontStyle=5;overflow=hidden;whiteSpace=wrap;html=1;" parent="rPi9T-fH075kp2shHSyl-36" vertex="1">
          <mxGeometry x="30" width="260" height="30" as="geometry">
            <mxRectangle width="260" height="30" as="alternateBounds" />
          </mxGeometry>
        </mxCell>
        <mxCell id="rPi9T-fH075kp2shHSyl-39" value="" style="shape=tableRow;horizontal=0;startSize=0;swimlaneHead=0;swimlaneBody=0;fillColor=none;collapsible=0;dropTarget=0;points=[[0,0.5],[1,0.5]];portConstraint=eastwest;top=0;left=0;right=0;bottom=0;" parent="rPi9T-fH075kp2shHSyl-35" vertex="1">
          <mxGeometry y="60" width="290" height="90" as="geometry" />
        </mxCell>
        <mxCell id="rPi9T-fH075kp2shHSyl-40" value="" style="shape=partialRectangle;connectable=0;fillColor=none;top=0;left=0;bottom=0;right=0;editable=1;overflow=hidden;whiteSpace=wrap;html=1;" parent="rPi9T-fH075kp2shHSyl-39" vertex="1">
          <mxGeometry width="30" height="90" as="geometry">
            <mxRectangle width="30" height="90" as="alternateBounds" />
          </mxGeometry>
        </mxCell>
        <mxCell id="rPi9T-fH075kp2shHSyl-41" value="" style="shape=partialRectangle;connectable=0;fillColor=none;top=0;left=0;bottom=0;right=0;align=left;spacingLeft=6;overflow=hidden;whiteSpace=wrap;html=1;" parent="rPi9T-fH075kp2shHSyl-39" vertex="1">
          <mxGeometry x="30" width="260" height="90" as="geometry">
            <mxRectangle width="260" height="90" as="alternateBounds" />
          </mxGeometry>
        </mxCell>
        <mxCell id="o8JEwMsqxa_T0_AtYmZZ-29" value="Name (varchar (20))" style="shape=partialRectangle;connectable=0;fillColor=none;top=0;left=0;bottom=0;right=0;align=left;spacingLeft=6;overflow=hidden;whiteSpace=wrap;html=1;" parent="rPi9T-fH075kp2shHSyl-34" vertex="1">
          <mxGeometry x="30" y="62.62269612192247" width="240" height="26.442600420994033" as="geometry">
            <mxRectangle width="230" height="30" as="alternateBounds" />
          </mxGeometry>
        </mxCell>
        <mxCell id="o8JEwMsqxa_T0_AtYmZZ-31" value="&lt;span style=&quot;white-space-collapse: preserve;&quot; data-src-align=&quot;0:3&quot; class=&quot;aNeGP0gI0B9AV8JaHPyH&quot;&gt;TypeO&lt;/span&gt;&lt;span style=&quot;white-space-collapse: preserve;&quot;&gt;fF&lt;/span&gt;&lt;span style=&quot;white-space-collapse: preserve;&quot; data-src-align=&quot;12:3&quot; class=&quot;aNeGP0gI0B9AV8JaHPyH&quot;&gt;oodS&lt;/span&gt;&lt;span style=&quot;white-space-collapse: preserve;&quot; data-src-align=&quot;4:7&quot; class=&quot;aNeGP0gI0B9AV8JaHPyH&quot;&gt;ection &lt;/span&gt;&lt;span style=&quot;white-space-collapse: preserve;&quot;&gt;(tinyint)&lt;/span&gt;" style="shape=partialRectangle;connectable=0;fillColor=none;top=0;left=1;bottom=0;right=0;align=left;spacingLeft=6;overflow=hidden;whiteSpace=wrap;html=1;" parent="rPi9T-fH075kp2shHSyl-34" vertex="1">
          <mxGeometry x="30" y="160" width="260" height="30" as="geometry">
            <mxRectangle width="230" height="30" as="alternateBounds" />
          </mxGeometry>
        </mxCell>
        <mxCell id="rPi9T-fH075kp2shHSyl-50" value="&lt;span style=&quot;white-space-collapse: preserve;&quot; data-src-align=&quot;0:10&quot; class=&quot;aNeGP0gI0B9AV8JaHPyH&quot;&gt;QuantityP&lt;/span&gt;&lt;span style=&quot;white-space-collapse: preserve;&quot; data-src-align=&quot;11:7&quot; class=&quot;aNeGP0gI0B9AV8JaHPyH&quot;&gt;erD&lt;/span&gt;&lt;span style=&quot;white-space-collapse: preserve;&quot; data-src-align=&quot;19:4&quot; class=&quot;aNeGP0gI0B9AV8JaHPyH&quot;&gt;ay (int)&lt;/span&gt;" style="shape=partialRectangle;connectable=0;fillColor=none;top=0;left=1;bottom=0;right=0;align=left;spacingLeft=6;overflow=hidden;whiteSpace=wrap;html=1;" parent="rPi9T-fH075kp2shHSyl-34" vertex="1">
          <mxGeometry x="30" y="85.9036584729398" width="240" height="28.19268305412035" as="geometry">
            <mxRectangle width="230" height="30" as="alternateBounds" />
          </mxGeometry>
        </mxCell>
        <mxCell id="rPi9T-fH075kp2shHSyl-51" value="&lt;span style=&quot;white-space-collapse: preserve;&quot; data-src-align=&quot;0:11&quot; class=&quot;aNeGP0gI0B9AV8JaHPyH&quot;&gt;StandardD&lt;/span&gt;&lt;span style=&quot;white-space-collapse: preserve;&quot; data-src-align=&quot;12:7&quot; class=&quot;aNeGP0gI0B9AV8JaHPyH&quot;&gt;ivisions (varchar (25))&lt;/span&gt;" style="shape=partialRectangle;connectable=0;fillColor=none;top=0;left=0;bottom=0;right=0;align=left;spacingLeft=6;overflow=hidden;whiteSpace=wrap;html=1;" parent="rPi9T-fH075kp2shHSyl-34" vertex="1">
          <mxGeometry x="30" y="114.1" width="260" height="21.62" as="geometry">
            <mxRectangle width="230" height="30" as="alternateBounds" />
          </mxGeometry>
        </mxCell>
        <mxCell id="rPi9T-fH075kp2shHSyl-52" value="&lt;span style=&quot;white-space-collapse: preserve;&quot;&gt;UnitOfMeasurement (varchar (5))&lt;/span&gt;" style="shape=partialRectangle;connectable=0;fillColor=none;top=0;left=1;bottom=0;right=0;align=left;spacingLeft=6;overflow=hidden;whiteSpace=wrap;html=1;" parent="rPi9T-fH075kp2shHSyl-34" vertex="1">
          <mxGeometry x="30" y="135.71578205730384" width="260" height="23.996659882052082" as="geometry">
            <mxRectangle width="230" height="30" as="alternateBounds" />
          </mxGeometry>
        </mxCell>
        <mxCell id="o8JEwMsqxa_T0_AtYmZZ-16" value="" style="edgeStyle=orthogonalEdgeStyle;fontSize=12;html=1;endArrow=ERmany;rounded=0;exitX=1;exitY=0.5;exitDx=0;exitDy=0;endFill=0;strokeColor=default;strokeWidth=2;startArrow=ERone;startFill=0;" parent="1" source="w7kY199S7oR7jgKgoo_Y-22" edge="1">
          <mxGeometry width="100" height="100" relative="1" as="geometry">
            <mxPoint x="540" y="1603" as="sourcePoint" />
            <mxPoint x="840" y="1130" as="targetPoint" />
            <Array as="points">
              <mxPoint x="800" y="1289" />
              <mxPoint x="800" y="1130" />
            </Array>
          </mxGeometry>
        </mxCell>
        <mxCell id="o8JEwMsqxa_T0_AtYmZZ-24" value="" style="group" parent="1" vertex="1" connectable="0">
          <mxGeometry x="800" y="750" width="280" height="230.0033333333333" as="geometry" />
        </mxCell>
        <mxCell id="pwiBvI5rpSsvWdqCSVei-46" value="" style="group" vertex="1" connectable="0" parent="o8JEwMsqxa_T0_AtYmZZ-24">
          <mxGeometry width="280" height="230.0033333333333" as="geometry" />
        </mxCell>
        <mxCell id="w7kY199S7oR7jgKgoo_Y-60" value="&lt;span style=&quot;font-weight: 400; text-wrap-mode: wrap;&quot;&gt;Supplements&lt;/span&gt;" style="shape=table;startSize=30;container=1;collapsible=1;childLayout=tableLayout;fixedRows=1;rowLines=0;fontStyle=1;align=center;resizeLast=1;html=1;" parent="pwiBvI5rpSsvWdqCSVei-46" vertex="1">
          <mxGeometry width="280" height="230" as="geometry" />
        </mxCell>
        <mxCell id="w7kY199S7oR7jgKgoo_Y-61" value="" style="shape=tableRow;horizontal=0;startSize=0;swimlaneHead=0;swimlaneBody=0;fillColor=none;collapsible=0;dropTarget=0;points=[[0,0.5],[1,0.5]];portConstraint=eastwest;top=0;left=0;right=0;bottom=1;" parent="w7kY199S7oR7jgKgoo_Y-60" vertex="1">
          <mxGeometry y="30" width="280" height="30" as="geometry" />
        </mxCell>
        <mxCell id="w7kY199S7oR7jgKgoo_Y-62" value="PK" style="shape=partialRectangle;connectable=0;fillColor=none;top=0;left=0;bottom=0;right=0;fontStyle=1;overflow=hidden;whiteSpace=wrap;html=1;" parent="w7kY199S7oR7jgKgoo_Y-61" vertex="1">
          <mxGeometry width="30" height="30" as="geometry">
            <mxRectangle width="30" height="30" as="alternateBounds" />
          </mxGeometry>
        </mxCell>
        <mxCell id="w7kY199S7oR7jgKgoo_Y-63" value="&lt;span style=&quot;font-weight: 400;&quot;&gt;Id&lt;/span&gt;" style="shape=partialRectangle;connectable=0;fillColor=none;top=0;left=0;bottom=0;right=0;align=left;spacingLeft=6;fontStyle=5;overflow=hidden;whiteSpace=wrap;html=1;" parent="w7kY199S7oR7jgKgoo_Y-61" vertex="1">
          <mxGeometry x="30" width="250" height="30" as="geometry">
            <mxRectangle width="250" height="30" as="alternateBounds" />
          </mxGeometry>
        </mxCell>
        <mxCell id="w7kY199S7oR7jgKgoo_Y-64" value="" style="shape=tableRow;horizontal=0;startSize=0;swimlaneHead=0;swimlaneBody=0;fillColor=none;collapsible=0;dropTarget=0;points=[[0,0.5],[1,0.5]];portConstraint=eastwest;top=0;left=0;right=0;bottom=0;" parent="w7kY199S7oR7jgKgoo_Y-60" vertex="1">
          <mxGeometry y="60" width="280" height="30" as="geometry" />
        </mxCell>
        <mxCell id="w7kY199S7oR7jgKgoo_Y-65" value="" style="shape=partialRectangle;connectable=0;fillColor=none;top=0;left=0;bottom=0;right=0;editable=1;overflow=hidden;whiteSpace=wrap;html=1;" parent="w7kY199S7oR7jgKgoo_Y-64" vertex="1">
          <mxGeometry width="30" height="30" as="geometry">
            <mxRectangle width="30" height="30" as="alternateBounds" />
          </mxGeometry>
        </mxCell>
        <mxCell id="w7kY199S7oR7jgKgoo_Y-66" value="Name" style="shape=partialRectangle;connectable=0;fillColor=none;top=0;left=0;bottom=0;right=0;align=left;spacingLeft=6;overflow=hidden;whiteSpace=wrap;html=1;" parent="w7kY199S7oR7jgKgoo_Y-64" vertex="1">
          <mxGeometry x="30" width="250" height="30" as="geometry">
            <mxRectangle width="250" height="30" as="alternateBounds" />
          </mxGeometry>
        </mxCell>
        <mxCell id="w7kY199S7oR7jgKgoo_Y-67" value="" style="shape=tableRow;horizontal=0;startSize=0;swimlaneHead=0;swimlaneBody=0;fillColor=none;collapsible=0;dropTarget=0;points=[[0,0.5],[1,0.5]];portConstraint=eastwest;top=0;left=0;right=0;bottom=0;" parent="w7kY199S7oR7jgKgoo_Y-60" vertex="1">
          <mxGeometry y="90" width="280" height="30" as="geometry" />
        </mxCell>
        <mxCell id="w7kY199S7oR7jgKgoo_Y-68" value="" style="shape=partialRectangle;connectable=0;fillColor=none;top=0;left=0;bottom=0;right=0;editable=1;overflow=hidden;whiteSpace=wrap;html=1;" parent="w7kY199S7oR7jgKgoo_Y-67" vertex="1">
          <mxGeometry width="30" height="30" as="geometry">
            <mxRectangle width="30" height="30" as="alternateBounds" />
          </mxGeometry>
        </mxCell>
        <mxCell id="w7kY199S7oR7jgKgoo_Y-69" value="" style="shape=partialRectangle;connectable=0;fillColor=none;top=0;left=0;bottom=0;right=0;align=left;spacingLeft=6;overflow=hidden;whiteSpace=wrap;html=1;" parent="w7kY199S7oR7jgKgoo_Y-67" vertex="1">
          <mxGeometry x="30" width="250" height="30" as="geometry">
            <mxRectangle width="250" height="30" as="alternateBounds" />
          </mxGeometry>
        </mxCell>
        <mxCell id="pwiBvI5rpSsvWdqCSVei-43" value="&lt;span style=&quot;white-space-collapse: preserve;&quot; data-src-align=&quot;19:4&quot; class=&quot;aNeGP0gI0B9AV8JaHPyH&quot;&gt;CountNutrients (decimal (8,2))&lt;/span&gt;" style="shape=partialRectangle;connectable=0;fillColor=none;top=0;left=1;bottom=0;right=0;align=left;spacingLeft=6;overflow=hidden;whiteSpace=wrap;html=1;" vertex="1" parent="pwiBvI5rpSsvWdqCSVei-46">
          <mxGeometry x="31.11" y="93.56" width="228.15" height="35" as="geometry">
            <mxRectangle width="230" height="30" as="alternateBounds" />
          </mxGeometry>
        </mxCell>
        <mxCell id="pwiBvI5rpSsvWdqCSVei-44" value="&lt;span style=&quot;white-space-collapse: preserve;&quot;&gt;UnitOfMeasurementNutrients (varchar (5))&lt;/span&gt;" style="shape=partialRectangle;connectable=0;fillColor=none;top=0;left=1;bottom=0;right=0;align=left;spacingLeft=6;overflow=hidden;whiteSpace=wrap;html=1;" vertex="1" parent="pwiBvI5rpSsvWdqCSVei-46">
          <mxGeometry x="31.11" y="128.56" width="248.89" height="38.1" as="geometry">
            <mxRectangle width="230" height="30" as="alternateBounds" />
          </mxGeometry>
        </mxCell>
        <mxCell id="o8JEwMsqxa_T0_AtYmZZ-19" value="&lt;span style=&quot;white-space-collapse: preserve;&quot; data-src-align=&quot;0:8&quot; class=&quot;aNeGP0gI0B9AV8JaHPyH&quot;&gt;Description (text)&lt;/span&gt;" style="shape=partialRectangle;connectable=0;fillColor=none;top=0;left=1;bottom=0;right=0;align=left;spacingLeft=6;overflow=hidden;whiteSpace=wrap;html=1;" parent="pwiBvI5rpSsvWdqCSVei-46" vertex="1">
          <mxGeometry x="31.11" y="166.66333333333336" width="150" height="33.333333333333336" as="geometry">
            <mxRectangle width="150" height="30" as="alternateBounds" />
          </mxGeometry>
        </mxCell>
        <mxCell id="pwiBvI5rpSsvWdqCSVei-95" value="&lt;span style=&quot;white-space-collapse: preserve;&quot; data-src-align=&quot;0:8&quot; class=&quot;aNeGP0gI0B9AV8JaHPyH&quot;&gt;&lt;span data-src-align=&quot;0:10&quot; class=&quot;aNeGP0gI0B9AV8JaHPyH&quot;&gt;Application&lt;/span&gt; (text)&lt;/span&gt;" style="shape=partialRectangle;connectable=0;fillColor=none;top=0;left=1;bottom=0;right=0;align=left;spacingLeft=6;overflow=hidden;whiteSpace=wrap;html=1;" vertex="1" parent="pwiBvI5rpSsvWdqCSVei-46">
          <mxGeometry x="31.11" y="196.67" width="150" height="33.33" as="geometry">
            <mxRectangle width="150" height="30" as="alternateBounds" />
          </mxGeometry>
        </mxCell>
        <mxCell id="o8JEwMsqxa_T0_AtYmZZ-25" value="" style="group" parent="1" vertex="1" connectable="0">
          <mxGeometry x="840" y="1000" width="180" height="150" as="geometry" />
        </mxCell>
        <mxCell id="o8JEwMsqxa_T0_AtYmZZ-1" value="&lt;span style=&quot;font-weight: 400; text-wrap-mode: wrap;&quot;&gt;Reviews&lt;/span&gt;" style="shape=table;startSize=30;container=1;collapsible=1;childLayout=tableLayout;fixedRows=1;rowLines=0;fontStyle=1;align=center;resizeLast=1;html=1;" parent="o8JEwMsqxa_T0_AtYmZZ-25" vertex="1">
          <mxGeometry width="180" height="150" as="geometry" />
        </mxCell>
        <mxCell id="o8JEwMsqxa_T0_AtYmZZ-2" value="" style="shape=tableRow;horizontal=0;startSize=0;swimlaneHead=0;swimlaneBody=0;fillColor=none;collapsible=0;dropTarget=0;points=[[0,0.5],[1,0.5]];portConstraint=eastwest;top=0;left=0;right=0;bottom=1;" parent="o8JEwMsqxa_T0_AtYmZZ-1" vertex="1">
          <mxGeometry y="30" width="180" height="30" as="geometry" />
        </mxCell>
        <mxCell id="o8JEwMsqxa_T0_AtYmZZ-3" value="PK" style="shape=partialRectangle;connectable=0;fillColor=none;top=0;left=0;bottom=0;right=0;fontStyle=1;overflow=hidden;whiteSpace=wrap;html=1;" parent="o8JEwMsqxa_T0_AtYmZZ-2" vertex="1">
          <mxGeometry width="30" height="30" as="geometry">
            <mxRectangle width="30" height="30" as="alternateBounds" />
          </mxGeometry>
        </mxCell>
        <mxCell id="o8JEwMsqxa_T0_AtYmZZ-4" value="&lt;span style=&quot;font-weight: 400;&quot;&gt;Id&lt;/span&gt;" style="shape=partialRectangle;connectable=0;fillColor=none;top=0;left=0;bottom=0;right=0;align=left;spacingLeft=6;fontStyle=5;overflow=hidden;whiteSpace=wrap;html=1;" parent="o8JEwMsqxa_T0_AtYmZZ-2" vertex="1">
          <mxGeometry x="30" width="150" height="30" as="geometry">
            <mxRectangle width="150" height="30" as="alternateBounds" />
          </mxGeometry>
        </mxCell>
        <mxCell id="o8JEwMsqxa_T0_AtYmZZ-5" value="" style="shape=tableRow;horizontal=0;startSize=0;swimlaneHead=0;swimlaneBody=0;fillColor=none;collapsible=0;dropTarget=0;points=[[0,0.5],[1,0.5]];portConstraint=eastwest;top=0;left=0;right=0;bottom=0;" parent="o8JEwMsqxa_T0_AtYmZZ-1" vertex="1">
          <mxGeometry y="60" width="180" height="30" as="geometry" />
        </mxCell>
        <mxCell id="o8JEwMsqxa_T0_AtYmZZ-6" value="" style="shape=partialRectangle;connectable=0;fillColor=none;top=0;left=0;bottom=0;right=0;editable=1;overflow=hidden;whiteSpace=wrap;html=1;" parent="o8JEwMsqxa_T0_AtYmZZ-5" vertex="1">
          <mxGeometry width="30" height="30" as="geometry">
            <mxRectangle width="30" height="30" as="alternateBounds" />
          </mxGeometry>
        </mxCell>
        <mxCell id="o8JEwMsqxa_T0_AtYmZZ-7" value="Text (text)" style="shape=partialRectangle;connectable=0;fillColor=none;top=0;left=0;bottom=0;right=0;align=left;spacingLeft=6;overflow=hidden;whiteSpace=wrap;html=1;" parent="o8JEwMsqxa_T0_AtYmZZ-5" vertex="1">
          <mxGeometry x="30" width="150" height="30" as="geometry">
            <mxRectangle width="150" height="30" as="alternateBounds" />
          </mxGeometry>
        </mxCell>
        <mxCell id="o8JEwMsqxa_T0_AtYmZZ-8" value="" style="shape=tableRow;horizontal=0;startSize=0;swimlaneHead=0;swimlaneBody=0;fillColor=none;collapsible=0;dropTarget=0;points=[[0,0.5],[1,0.5]];portConstraint=eastwest;top=0;left=0;right=0;bottom=0;" parent="o8JEwMsqxa_T0_AtYmZZ-1" vertex="1">
          <mxGeometry y="90" width="180" height="30" as="geometry" />
        </mxCell>
        <mxCell id="o8JEwMsqxa_T0_AtYmZZ-9" value="" style="shape=partialRectangle;connectable=0;fillColor=none;top=0;left=0;bottom=0;right=0;editable=1;overflow=hidden;whiteSpace=wrap;html=1;" parent="o8JEwMsqxa_T0_AtYmZZ-8" vertex="1">
          <mxGeometry width="30" height="30" as="geometry">
            <mxRectangle width="30" height="30" as="alternateBounds" />
          </mxGeometry>
        </mxCell>
        <mxCell id="o8JEwMsqxa_T0_AtYmZZ-10" value="DateTime (Date)" style="shape=partialRectangle;connectable=0;fillColor=none;top=0;left=0;bottom=0;right=0;align=left;spacingLeft=6;overflow=hidden;whiteSpace=wrap;html=1;" parent="o8JEwMsqxa_T0_AtYmZZ-8" vertex="1">
          <mxGeometry x="30" width="150" height="30" as="geometry">
            <mxRectangle width="150" height="30" as="alternateBounds" />
          </mxGeometry>
        </mxCell>
        <mxCell id="o8JEwMsqxa_T0_AtYmZZ-11" value="" style="shape=tableRow;horizontal=0;startSize=0;swimlaneHead=0;swimlaneBody=0;fillColor=none;collapsible=0;dropTarget=0;points=[[0,0.5],[1,0.5]];portConstraint=eastwest;top=0;left=0;right=0;bottom=0;" parent="o8JEwMsqxa_T0_AtYmZZ-1" vertex="1">
          <mxGeometry y="120" width="180" height="30" as="geometry" />
        </mxCell>
        <mxCell id="o8JEwMsqxa_T0_AtYmZZ-12" value="" style="shape=partialRectangle;connectable=0;fillColor=none;top=0;left=0;bottom=0;right=0;editable=1;overflow=hidden;whiteSpace=wrap;html=1;" parent="o8JEwMsqxa_T0_AtYmZZ-11" vertex="1">
          <mxGeometry width="30" height="30" as="geometry">
            <mxRectangle width="30" height="30" as="alternateBounds" />
          </mxGeometry>
        </mxCell>
        <mxCell id="o8JEwMsqxa_T0_AtYmZZ-13" value="Id_users (int)" style="shape=partialRectangle;connectable=0;fillColor=none;top=0;left=0;bottom=0;right=0;align=left;spacingLeft=6;overflow=hidden;whiteSpace=wrap;html=1;" parent="o8JEwMsqxa_T0_AtYmZZ-11" vertex="1">
          <mxGeometry x="30" width="150" height="30" as="geometry">
            <mxRectangle width="150" height="30" as="alternateBounds" />
          </mxGeometry>
        </mxCell>
        <mxCell id="o8JEwMsqxa_T0_AtYmZZ-15" value="FK" style="shape=partialRectangle;connectable=0;fillColor=none;top=1;left=1;bottom=1;right=1;fontStyle=1;overflow=hidden;whiteSpace=wrap;html=1;resizeWidth=1;resizeHeight=1;fixedWidth=1;linecap=square;" parent="o8JEwMsqxa_T0_AtYmZZ-25" vertex="1">
          <mxGeometry y="119" width="30" height="30" as="geometry">
            <mxRectangle width="30" height="30" as="alternateBounds" />
          </mxGeometry>
        </mxCell>
        <mxCell id="o8JEwMsqxa_T0_AtYmZZ-33" value="" style="group" parent="1" vertex="1" connectable="0">
          <mxGeometry x="-320" y="320" width="200" height="150" as="geometry" />
        </mxCell>
        <mxCell id="w7kY199S7oR7jgKgoo_Y-86" value="&lt;span style=&quot;font-weight: 400; text-wrap-mode: wrap;&quot;&gt;CurrentDailyConsumptions&lt;/span&gt;" style="shape=table;startSize=30;container=1;collapsible=1;childLayout=tableLayout;fixedRows=1;rowLines=0;fontStyle=1;align=center;resizeLast=1;html=1;" parent="o8JEwMsqxa_T0_AtYmZZ-33" vertex="1">
          <mxGeometry width="200" height="150" as="geometry" />
        </mxCell>
        <mxCell id="w7kY199S7oR7jgKgoo_Y-87" value="" style="shape=tableRow;horizontal=0;startSize=0;swimlaneHead=0;swimlaneBody=0;fillColor=none;collapsible=0;dropTarget=0;points=[[0,0.5],[1,0.5]];portConstraint=eastwest;top=0;left=0;right=0;bottom=1;" parent="w7kY199S7oR7jgKgoo_Y-86" vertex="1">
          <mxGeometry y="30" width="200" height="30" as="geometry" />
        </mxCell>
        <mxCell id="w7kY199S7oR7jgKgoo_Y-88" value="PK" style="shape=partialRectangle;connectable=0;fillColor=none;top=0;left=0;bottom=0;right=0;fontStyle=1;overflow=hidden;whiteSpace=wrap;html=1;" parent="w7kY199S7oR7jgKgoo_Y-87" vertex="1">
          <mxGeometry width="30" height="30" as="geometry">
            <mxRectangle width="30" height="30" as="alternateBounds" />
          </mxGeometry>
        </mxCell>
        <mxCell id="w7kY199S7oR7jgKgoo_Y-89" value="&lt;span style=&quot;font-weight: 400;&quot;&gt;Id&lt;/span&gt;" style="shape=partialRectangle;connectable=0;fillColor=none;top=0;left=0;bottom=0;right=0;align=left;spacingLeft=6;fontStyle=5;overflow=hidden;whiteSpace=wrap;html=1;" parent="w7kY199S7oR7jgKgoo_Y-87" vertex="1">
          <mxGeometry x="30" width="170" height="30" as="geometry">
            <mxRectangle width="170" height="30" as="alternateBounds" />
          </mxGeometry>
        </mxCell>
        <mxCell id="w7kY199S7oR7jgKgoo_Y-90" value="" style="shape=tableRow;horizontal=0;startSize=0;swimlaneHead=0;swimlaneBody=0;fillColor=none;collapsible=0;dropTarget=0;points=[[0,0.5],[1,0.5]];portConstraint=eastwest;top=0;left=0;right=0;bottom=0;" parent="w7kY199S7oR7jgKgoo_Y-86" vertex="1">
          <mxGeometry y="60" width="200" height="30" as="geometry" />
        </mxCell>
        <mxCell id="w7kY199S7oR7jgKgoo_Y-91" value="" style="shape=partialRectangle;connectable=0;fillColor=none;top=0;left=0;bottom=0;right=0;editable=1;overflow=hidden;whiteSpace=wrap;html=1;" parent="w7kY199S7oR7jgKgoo_Y-90" vertex="1">
          <mxGeometry width="30" height="30" as="geometry">
            <mxRectangle width="30" height="30" as="alternateBounds" />
          </mxGeometry>
        </mxCell>
        <mxCell id="w7kY199S7oR7jgKgoo_Y-92" value="DateTimeOfFilling&amp;nbsp;(DateTime)" style="shape=partialRectangle;connectable=0;fillColor=none;top=0;left=0;bottom=0;right=0;align=left;spacingLeft=6;overflow=hidden;whiteSpace=wrap;html=1;" parent="w7kY199S7oR7jgKgoo_Y-90" vertex="1">
          <mxGeometry x="30" width="170" height="30" as="geometry">
            <mxRectangle width="170" height="30" as="alternateBounds" />
          </mxGeometry>
        </mxCell>
        <mxCell id="w7kY199S7oR7jgKgoo_Y-93" value="" style="shape=tableRow;horizontal=0;startSize=0;swimlaneHead=0;swimlaneBody=0;fillColor=none;collapsible=0;dropTarget=0;points=[[0,0.5],[1,0.5]];portConstraint=eastwest;top=0;left=0;right=0;bottom=0;" parent="w7kY199S7oR7jgKgoo_Y-86" vertex="1">
          <mxGeometry y="90" width="200" height="30" as="geometry" />
        </mxCell>
        <mxCell id="w7kY199S7oR7jgKgoo_Y-94" value="" style="shape=partialRectangle;connectable=0;fillColor=none;top=0;left=0;bottom=0;right=0;editable=1;overflow=hidden;whiteSpace=wrap;html=1;" parent="w7kY199S7oR7jgKgoo_Y-93" vertex="1">
          <mxGeometry width="30" height="30" as="geometry">
            <mxRectangle width="30" height="30" as="alternateBounds" />
          </mxGeometry>
        </mxCell>
        <mxCell id="w7kY199S7oR7jgKgoo_Y-95" value="" style="shape=partialRectangle;connectable=0;fillColor=none;top=0;left=0;bottom=0;right=0;align=left;spacingLeft=6;overflow=hidden;whiteSpace=wrap;html=1;" parent="w7kY199S7oR7jgKgoo_Y-93" vertex="1">
          <mxGeometry x="30" width="170" height="30" as="geometry">
            <mxRectangle width="170" height="30" as="alternateBounds" />
          </mxGeometry>
        </mxCell>
        <mxCell id="w7kY199S7oR7jgKgoo_Y-96" value="" style="shape=tableRow;horizontal=0;startSize=0;swimlaneHead=0;swimlaneBody=0;fillColor=none;collapsible=0;dropTarget=0;points=[[0,0.5],[1,0.5]];portConstraint=eastwest;top=0;left=0;right=0;bottom=0;" parent="w7kY199S7oR7jgKgoo_Y-86" vertex="1">
          <mxGeometry y="120" width="200" height="30" as="geometry" />
        </mxCell>
        <mxCell id="w7kY199S7oR7jgKgoo_Y-97" value="" style="shape=partialRectangle;connectable=0;fillColor=none;top=0;left=0;bottom=0;right=0;editable=1;overflow=hidden;whiteSpace=wrap;html=1;" parent="w7kY199S7oR7jgKgoo_Y-96" vertex="1">
          <mxGeometry width="30" height="30" as="geometry">
            <mxRectangle width="30" height="30" as="alternateBounds" />
          </mxGeometry>
        </mxCell>
        <mxCell id="w7kY199S7oR7jgKgoo_Y-98" value="" style="shape=partialRectangle;connectable=0;fillColor=none;top=0;left=0;bottom=0;right=0;align=left;spacingLeft=6;overflow=hidden;whiteSpace=wrap;html=1;" parent="w7kY199S7oR7jgKgoo_Y-96" vertex="1">
          <mxGeometry x="30" width="170" height="30" as="geometry">
            <mxRectangle width="170" height="30" as="alternateBounds" />
          </mxGeometry>
        </mxCell>
        <mxCell id="pwiBvI5rpSsvWdqCSVei-37" value="" style="group" vertex="1" connectable="0" parent="o8JEwMsqxa_T0_AtYmZZ-33">
          <mxGeometry y="120" width="200" height="30" as="geometry" />
        </mxCell>
        <mxCell id="o8JEwMsqxa_T0_AtYmZZ-54" value="FK" style="shape=partialRectangle;connectable=0;fillColor=none;top=1;left=1;bottom=1;right=1;fontStyle=1;overflow=hidden;whiteSpace=wrap;html=1;resizeWidth=1;resizeHeight=1;fixedWidth=1;linecap=square;" parent="pwiBvI5rpSsvWdqCSVei-37" vertex="1">
          <mxGeometry width="33.333333333333336" height="30" as="geometry">
            <mxRectangle width="30" height="30" as="alternateBounds" />
          </mxGeometry>
        </mxCell>
        <mxCell id="o8JEwMsqxa_T0_AtYmZZ-27" value="&lt;span style=&quot;font-weight: 400;&quot;&gt;Id_assesments (int)&lt;/span&gt;" style="shape=partialRectangle;connectable=0;fillColor=none;top=1;left=0;bottom=0;right=0;align=left;spacingLeft=6;fontStyle=5;overflow=hidden;whiteSpace=wrap;html=1;" parent="pwiBvI5rpSsvWdqCSVei-37" vertex="1">
          <mxGeometry x="33.333333333333336" width="166.66666666666669" height="30" as="geometry">
            <mxRectangle width="230" height="30" as="alternateBounds" />
          </mxGeometry>
        </mxCell>
        <mxCell id="o8JEwMsqxa_T0_AtYmZZ-52" value="" style="edgeStyle=orthogonalEdgeStyle;fontSize=12;html=1;endArrow=ERmany;rounded=0;endFill=0;strokeColor=default;strokeWidth=2;startArrow=ERone;startFill=0;entryX=0;entryY=0.5;entryDx=0;entryDy=0;" parent="1" target="w7kY199S7oR7jgKgoo_Y-35" edge="1">
          <mxGeometry width="100" height="100" relative="1" as="geometry">
            <mxPoint x="-320" y="360" as="sourcePoint" />
            <mxPoint x="-170" y="855" as="targetPoint" />
            <Array as="points">
              <mxPoint x="-400" y="360" />
              <mxPoint x="-400" y="575" />
            </Array>
          </mxGeometry>
        </mxCell>
        <mxCell id="o8JEwMsqxa_T0_AtYmZZ-55" value="" style="group" parent="1" vertex="1" connectable="0">
          <mxGeometry x="-380" y="530" width="260" height="220" as="geometry" />
        </mxCell>
        <mxCell id="w7kY199S7oR7jgKgoo_Y-34" value="&lt;span style=&quot;font-weight: 400; text-wrap-mode: wrap;&quot;&gt;Assesments&lt;/span&gt;" style="shape=table;startSize=30;container=1;collapsible=1;childLayout=tableLayout;fixedRows=1;rowLines=0;fontStyle=1;align=center;resizeLast=1;html=1;" parent="o8JEwMsqxa_T0_AtYmZZ-55" vertex="1">
          <mxGeometry width="260" height="220" as="geometry" />
        </mxCell>
        <mxCell id="w7kY199S7oR7jgKgoo_Y-35" value="" style="shape=tableRow;horizontal=0;startSize=0;swimlaneHead=0;swimlaneBody=0;fillColor=none;collapsible=0;dropTarget=0;points=[[0,0.5],[1,0.5]];portConstraint=eastwest;top=0;left=0;right=0;bottom=1;" parent="w7kY199S7oR7jgKgoo_Y-34" vertex="1">
          <mxGeometry y="30" width="260" height="30" as="geometry" />
        </mxCell>
        <mxCell id="w7kY199S7oR7jgKgoo_Y-36" value="PK" style="shape=partialRectangle;connectable=0;fillColor=none;top=0;left=0;bottom=0;right=0;fontStyle=1;overflow=hidden;whiteSpace=wrap;html=1;" parent="w7kY199S7oR7jgKgoo_Y-35" vertex="1">
          <mxGeometry width="30" height="30" as="geometry">
            <mxRectangle width="30" height="30" as="alternateBounds" />
          </mxGeometry>
        </mxCell>
        <mxCell id="w7kY199S7oR7jgKgoo_Y-37" value="&lt;span style=&quot;font-weight: 400;&quot;&gt;Id&lt;/span&gt;" style="shape=partialRectangle;connectable=0;fillColor=none;top=0;left=0;bottom=0;right=0;align=left;spacingLeft=6;fontStyle=5;overflow=hidden;whiteSpace=wrap;html=1;" parent="w7kY199S7oR7jgKgoo_Y-35" vertex="1">
          <mxGeometry x="30" width="230" height="30" as="geometry">
            <mxRectangle width="230" height="30" as="alternateBounds" />
          </mxGeometry>
        </mxCell>
        <mxCell id="w7kY199S7oR7jgKgoo_Y-38" value="" style="shape=tableRow;horizontal=0;startSize=0;swimlaneHead=0;swimlaneBody=0;fillColor=none;collapsible=0;dropTarget=0;points=[[0,0.5],[1,0.5]];portConstraint=eastwest;top=0;left=0;right=0;bottom=0;" parent="w7kY199S7oR7jgKgoo_Y-34" vertex="1">
          <mxGeometry y="60" width="260" height="30" as="geometry" />
        </mxCell>
        <mxCell id="w7kY199S7oR7jgKgoo_Y-39" value="" style="shape=partialRectangle;connectable=0;fillColor=none;top=0;left=0;bottom=0;right=0;editable=1;overflow=hidden;whiteSpace=wrap;html=1;" parent="w7kY199S7oR7jgKgoo_Y-38" vertex="1">
          <mxGeometry width="30" height="30" as="geometry">
            <mxRectangle width="30" height="30" as="alternateBounds" />
          </mxGeometry>
        </mxCell>
        <mxCell id="w7kY199S7oR7jgKgoo_Y-40" value="Name (varchar (20))" style="shape=partialRectangle;connectable=0;fillColor=none;top=0;left=0;bottom=0;right=0;align=left;spacingLeft=6;overflow=hidden;whiteSpace=wrap;html=1;" parent="w7kY199S7oR7jgKgoo_Y-38" vertex="1">
          <mxGeometry x="30" width="230" height="30" as="geometry">
            <mxRectangle width="230" height="30" as="alternateBounds" />
          </mxGeometry>
        </mxCell>
        <mxCell id="w7kY199S7oR7jgKgoo_Y-41" value="" style="shape=tableRow;horizontal=0;startSize=0;swimlaneHead=0;swimlaneBody=0;fillColor=none;collapsible=0;dropTarget=0;points=[[0,0.5],[1,0.5]];portConstraint=eastwest;top=0;left=0;right=0;bottom=0;" parent="w7kY199S7oR7jgKgoo_Y-34" vertex="1">
          <mxGeometry y="90" width="260" height="60" as="geometry" />
        </mxCell>
        <mxCell id="w7kY199S7oR7jgKgoo_Y-42" value="" style="shape=partialRectangle;connectable=0;fillColor=none;top=0;left=0;bottom=0;right=0;editable=1;overflow=hidden;whiteSpace=wrap;html=1;" parent="w7kY199S7oR7jgKgoo_Y-41" vertex="1">
          <mxGeometry width="30" height="60" as="geometry">
            <mxRectangle width="30" height="60" as="alternateBounds" />
          </mxGeometry>
        </mxCell>
        <mxCell id="w7kY199S7oR7jgKgoo_Y-43" value="" style="shape=partialRectangle;connectable=0;fillColor=none;top=0;left=0;bottom=0;right=0;align=left;spacingLeft=6;overflow=hidden;whiteSpace=wrap;html=1;" parent="w7kY199S7oR7jgKgoo_Y-41" vertex="1">
          <mxGeometry x="30" width="230" height="60" as="geometry">
            <mxRectangle width="230" height="60" as="alternateBounds" />
          </mxGeometry>
        </mxCell>
        <mxCell id="rPi9T-fH075kp2shHSyl-55" value="DateTimeOfStart (DateTime)" style="shape=partialRectangle;connectable=0;fillColor=none;top=0;left=0;bottom=0;right=0;align=left;spacingLeft=6;overflow=hidden;whiteSpace=wrap;html=1;" parent="o8JEwMsqxa_T0_AtYmZZ-55" vertex="1">
          <mxGeometry x="30" y="87.29809523809524" width="220" height="34.920634920634924" as="geometry">
            <mxRectangle width="230" height="30" as="alternateBounds" />
          </mxGeometry>
        </mxCell>
        <mxCell id="pwiBvI5rpSsvWdqCSVei-38" value="" style="group" vertex="1" connectable="0" parent="o8JEwMsqxa_T0_AtYmZZ-55">
          <mxGeometry y="188.56793650793654" width="260" height="34.92063492063493" as="geometry" />
        </mxCell>
        <mxCell id="rPi9T-fH075kp2shHSyl-56" value="&lt;span style=&quot;font-weight: 400;&quot;&gt;Id_users (int)&lt;/span&gt;" style="shape=partialRectangle;connectable=0;fillColor=none;top=1;left=0;bottom=0;right=0;align=left;spacingLeft=6;fontStyle=5;overflow=hidden;whiteSpace=wrap;html=1;" parent="pwiBvI5rpSsvWdqCSVei-38" vertex="1">
          <mxGeometry x="30" width="230" height="34.920634920634924" as="geometry">
            <mxRectangle width="230" height="30" as="alternateBounds" />
          </mxGeometry>
        </mxCell>
        <mxCell id="rPi9T-fH075kp2shHSyl-57" value="FK" style="shape=partialRectangle;connectable=0;fillColor=none;top=1;left=1;bottom=0;right=1;fontStyle=1;overflow=hidden;whiteSpace=wrap;html=1;resizeWidth=1;resizeHeight=1;fixedWidth=1;linecap=square;" parent="pwiBvI5rpSsvWdqCSVei-38" vertex="1">
          <mxGeometry width="30" height="34.920634920634924" as="geometry">
            <mxRectangle width="30" height="30" as="alternateBounds" />
          </mxGeometry>
        </mxCell>
        <mxCell id="pwiBvI5rpSsvWdqCSVei-39" value="" style="group" vertex="1" connectable="0" parent="o8JEwMsqxa_T0_AtYmZZ-55">
          <mxGeometry y="153.6425396825397" width="260" height="34.92063492063491" as="geometry" />
        </mxCell>
        <mxCell id="o8JEwMsqxa_T0_AtYmZZ-57" value="&lt;span style=&quot;font-weight: 400; text-align: center;&quot;&gt;Id_setNutrients (int)&lt;/span&gt;" style="shape=partialRectangle;connectable=1;fillColor=none;top=1;left=0;bottom=1;right=0;align=left;spacingLeft=6;fontStyle=1;overflow=hidden;whiteSpace=wrap;html=1;allowArrows=1;pointerEvents=1;deletable=1;cloneable=1;rotatable=1;resizable=1;movable=1;editable=1;locked=0;strokeColor=default;" parent="pwiBvI5rpSsvWdqCSVei-39" vertex="1">
          <mxGeometry x="30" width="230" height="34.920634920634924" as="geometry">
            <mxRectangle width="230" height="30" as="alternateBounds" />
          </mxGeometry>
        </mxCell>
        <mxCell id="pwiBvI5rpSsvWdqCSVei-7" value="FK" style="shape=partialRectangle;connectable=0;fillColor=none;top=1;left=1;bottom=1;right=1;fontStyle=1;overflow=hidden;whiteSpace=wrap;html=1;resizeWidth=1;resizeHeight=1;fixedWidth=1;linecap=square;" vertex="1" parent="pwiBvI5rpSsvWdqCSVei-39">
          <mxGeometry width="30" height="34.920634920634924" as="geometry">
            <mxRectangle width="30" height="30" as="alternateBounds" />
          </mxGeometry>
        </mxCell>
        <mxCell id="pwiBvI5rpSsvWdqCSVei-40" value="IsEnd (boolean)" style="shape=partialRectangle;connectable=0;fillColor=none;top=0;left=0;bottom=0;right=0;align=left;spacingLeft=6;overflow=hidden;whiteSpace=wrap;html=1;" vertex="1" parent="o8JEwMsqxa_T0_AtYmZZ-55">
          <mxGeometry x="30" y="118.72000000000003" width="220" height="34.920634920634924" as="geometry">
            <mxRectangle width="230" height="30" as="alternateBounds" />
          </mxGeometry>
        </mxCell>
        <mxCell id="o8JEwMsqxa_T0_AtYmZZ-58" value="" style="edgeStyle=orthogonalEdgeStyle;fontSize=12;html=1;endArrow=ERmany;rounded=0;endFill=0;strokeColor=default;strokeWidth=2;startArrow=ERone;startFill=0;entryX=1;entryY=0.5;entryDx=0;entryDy=0;" parent="1" target="rPi9T-fH075kp2shHSyl-36" edge="1">
          <mxGeometry width="100" height="100" relative="1" as="geometry">
            <mxPoint y="1090" as="sourcePoint" />
            <mxPoint x="295" y="850" as="targetPoint" />
            <Array as="points">
              <mxPoint x="-90" y="1090" />
              <mxPoint x="-90" y="1075" />
            </Array>
          </mxGeometry>
        </mxCell>
        <mxCell id="o8JEwMsqxa_T0_AtYmZZ-78" value="" style="group" parent="1" vertex="1" connectable="0">
          <mxGeometry y="920" width="270" height="180" as="geometry" />
        </mxCell>
        <mxCell id="o8JEwMsqxa_T0_AtYmZZ-79" value="&lt;div style=&quot;text-align: left;&quot;&gt;&lt;span style=&quot;font-weight: 400; text-wrap-mode: wrap; background-color: transparent; color: light-dark(rgb(0, 0, 0), rgb(255, 255, 255));&quot;&gt;Foods_&lt;/span&gt;&lt;span style=&quot;background-color: transparent; font-weight: 400; text-wrap-mode: wrap;&quot;&gt;Nutrients&lt;/span&gt;&lt;/div&gt;" style="shape=table;startSize=30;container=1;collapsible=1;childLayout=tableLayout;fixedRows=1;rowLines=0;fontStyle=1;align=center;resizeLast=1;html=1;" parent="o8JEwMsqxa_T0_AtYmZZ-78" vertex="1">
          <mxGeometry width="270" height="180" as="geometry" />
        </mxCell>
        <mxCell id="o8JEwMsqxa_T0_AtYmZZ-80" value="" style="shape=tableRow;horizontal=0;startSize=0;swimlaneHead=0;swimlaneBody=0;fillColor=none;collapsible=0;dropTarget=0;points=[[0,0.5],[1,0.5]];portConstraint=eastwest;top=0;left=0;right=0;bottom=1;" parent="o8JEwMsqxa_T0_AtYmZZ-79" vertex="1">
          <mxGeometry y="30" width="270" height="30" as="geometry" />
        </mxCell>
        <mxCell id="o8JEwMsqxa_T0_AtYmZZ-81" value="PK" style="shape=partialRectangle;connectable=0;fillColor=none;top=0;left=0;bottom=0;right=0;fontStyle=1;overflow=hidden;whiteSpace=wrap;html=1;" parent="o8JEwMsqxa_T0_AtYmZZ-80" vertex="1">
          <mxGeometry width="30" height="30" as="geometry">
            <mxRectangle width="30" height="30" as="alternateBounds" />
          </mxGeometry>
        </mxCell>
        <mxCell id="o8JEwMsqxa_T0_AtYmZZ-82" value="&lt;span style=&quot;font-weight: 400;&quot;&gt;Id&lt;/span&gt;" style="shape=partialRectangle;connectable=0;fillColor=none;top=0;left=0;bottom=0;right=0;align=left;spacingLeft=6;fontStyle=5;overflow=hidden;whiteSpace=wrap;html=1;" parent="o8JEwMsqxa_T0_AtYmZZ-80" vertex="1">
          <mxGeometry x="30" width="240" height="30" as="geometry">
            <mxRectangle width="240" height="30" as="alternateBounds" />
          </mxGeometry>
        </mxCell>
        <mxCell id="o8JEwMsqxa_T0_AtYmZZ-83" value="" style="shape=tableRow;horizontal=0;startSize=0;swimlaneHead=0;swimlaneBody=0;fillColor=none;collapsible=0;dropTarget=0;points=[[0,0.5],[1,0.5]];portConstraint=eastwest;top=0;left=0;right=0;bottom=0;" parent="o8JEwMsqxa_T0_AtYmZZ-79" vertex="1">
          <mxGeometry y="60" width="270" height="40" as="geometry" />
        </mxCell>
        <mxCell id="o8JEwMsqxa_T0_AtYmZZ-84" value="" style="shape=partialRectangle;connectable=0;fillColor=none;top=0;left=0;bottom=0;right=0;editable=1;overflow=hidden;whiteSpace=wrap;html=1;" parent="o8JEwMsqxa_T0_AtYmZZ-83" vertex="1">
          <mxGeometry width="30" height="40" as="geometry">
            <mxRectangle width="30" height="40" as="alternateBounds" />
          </mxGeometry>
        </mxCell>
        <mxCell id="o8JEwMsqxa_T0_AtYmZZ-85" value="" style="shape=partialRectangle;connectable=0;fillColor=none;top=0;left=0;bottom=0;right=0;align=left;spacingLeft=6;overflow=hidden;whiteSpace=wrap;html=1;" parent="o8JEwMsqxa_T0_AtYmZZ-83" vertex="1">
          <mxGeometry x="30" width="240" height="40" as="geometry">
            <mxRectangle width="240" height="40" as="alternateBounds" />
          </mxGeometry>
        </mxCell>
        <mxCell id="o8JEwMsqxa_T0_AtYmZZ-86" value="" style="shape=tableRow;horizontal=0;startSize=0;swimlaneHead=0;swimlaneBody=0;fillColor=none;collapsible=0;dropTarget=0;points=[[0,0.5],[1,0.5]];portConstraint=eastwest;top=0;left=0;right=0;bottom=0;" parent="o8JEwMsqxa_T0_AtYmZZ-79" vertex="1">
          <mxGeometry y="100" width="270" height="40" as="geometry" />
        </mxCell>
        <mxCell id="o8JEwMsqxa_T0_AtYmZZ-87" value="" style="shape=partialRectangle;connectable=0;fillColor=none;top=0;left=0;bottom=0;right=0;editable=1;overflow=hidden;whiteSpace=wrap;html=1;" parent="o8JEwMsqxa_T0_AtYmZZ-86" vertex="1">
          <mxGeometry width="30" height="40" as="geometry">
            <mxRectangle width="30" height="40" as="alternateBounds" />
          </mxGeometry>
        </mxCell>
        <mxCell id="o8JEwMsqxa_T0_AtYmZZ-88" value="" style="shape=partialRectangle;connectable=0;fillColor=none;top=0;left=0;bottom=0;right=0;align=left;spacingLeft=6;overflow=hidden;whiteSpace=wrap;html=1;" parent="o8JEwMsqxa_T0_AtYmZZ-86" vertex="1">
          <mxGeometry x="30" width="240" height="40" as="geometry">
            <mxRectangle width="240" height="40" as="alternateBounds" />
          </mxGeometry>
        </mxCell>
        <mxCell id="o8JEwMsqxa_T0_AtYmZZ-89" value="" style="shape=tableRow;horizontal=0;startSize=0;swimlaneHead=0;swimlaneBody=0;fillColor=none;collapsible=0;dropTarget=0;points=[[0,0.5],[1,0.5]];portConstraint=eastwest;top=0;left=0;right=0;bottom=0;" parent="o8JEwMsqxa_T0_AtYmZZ-79" vertex="1">
          <mxGeometry y="140" width="270" height="40" as="geometry" />
        </mxCell>
        <mxCell id="o8JEwMsqxa_T0_AtYmZZ-90" value="" style="shape=partialRectangle;connectable=0;fillColor=none;top=0;left=0;bottom=0;right=0;editable=1;overflow=hidden;whiteSpace=wrap;html=1;" parent="o8JEwMsqxa_T0_AtYmZZ-89" vertex="1">
          <mxGeometry width="30" height="40" as="geometry">
            <mxRectangle width="30" height="40" as="alternateBounds" />
          </mxGeometry>
        </mxCell>
        <mxCell id="o8JEwMsqxa_T0_AtYmZZ-91" value="" style="shape=partialRectangle;connectable=0;fillColor=none;top=0;left=0;bottom=0;right=0;align=left;spacingLeft=6;overflow=hidden;whiteSpace=wrap;html=1;" parent="o8JEwMsqxa_T0_AtYmZZ-89" vertex="1">
          <mxGeometry x="30" width="240" height="40" as="geometry">
            <mxRectangle width="240" height="40" as="alternateBounds" />
          </mxGeometry>
        </mxCell>
        <mxCell id="pwiBvI5rpSsvWdqCSVei-1" value="&lt;span style=&quot;font-weight: 400;&quot;&gt;Id_foods (int)&lt;/span&gt;" style="shape=partialRectangle;connectable=0;fillColor=none;top=1;left=0;bottom=1;right=0;align=left;spacingLeft=6;fontStyle=5;overflow=hidden;whiteSpace=wrap;html=1;" vertex="1" parent="o8JEwMsqxa_T0_AtYmZZ-78">
          <mxGeometry x="30" y="150" width="240" height="30" as="geometry">
            <mxRectangle width="230" height="30" as="alternateBounds" />
          </mxGeometry>
        </mxCell>
        <mxCell id="pwiBvI5rpSsvWdqCSVei-2" value="FK" style="shape=partialRectangle;connectable=0;fillColor=none;top=1;left=1;bottom=1;right=1;fontStyle=1;overflow=hidden;whiteSpace=wrap;html=1;resizeWidth=1;resizeHeight=1;fixedWidth=1;linecap=square;" vertex="1" parent="o8JEwMsqxa_T0_AtYmZZ-78">
          <mxGeometry y="150" width="30" height="30" as="geometry">
            <mxRectangle width="30" height="30" as="alternateBounds" />
          </mxGeometry>
        </mxCell>
        <mxCell id="pwiBvI5rpSsvWdqCSVei-3" value="&lt;span style=&quot;font-weight: 400;&quot;&gt;Id_nutrients (int)&lt;/span&gt;" style="shape=partialRectangle;connectable=0;fillColor=none;top=1;left=0;bottom=1;right=0;align=left;spacingLeft=6;fontStyle=5;overflow=hidden;whiteSpace=wrap;html=1;" vertex="1" parent="o8JEwMsqxa_T0_AtYmZZ-78">
          <mxGeometry x="30" y="120" width="240" height="30" as="geometry">
            <mxRectangle width="230" height="30" as="alternateBounds" />
          </mxGeometry>
        </mxCell>
        <mxCell id="pwiBvI5rpSsvWdqCSVei-4" value="FK" style="shape=partialRectangle;connectable=0;fillColor=none;top=1;left=1;bottom=1;right=1;fontStyle=1;overflow=hidden;whiteSpace=wrap;html=1;resizeWidth=1;resizeHeight=1;fixedWidth=1;linecap=square;" vertex="1" parent="o8JEwMsqxa_T0_AtYmZZ-78">
          <mxGeometry y="120" width="30" height="30" as="geometry">
            <mxRectangle width="30" height="30" as="alternateBounds" />
          </mxGeometry>
        </mxCell>
        <mxCell id="pwiBvI5rpSsvWdqCSVei-6" value="&lt;span style=&quot;white-space-collapse: preserve;&quot; data-src-align=&quot;19:4&quot; class=&quot;aNeGP0gI0B9AV8JaHPyH&quot;&gt;CountNutrients (decimal (8,2))&lt;/span&gt;" style="shape=partialRectangle;connectable=0;fillColor=none;top=0;left=0;bottom=0;right=0;align=left;spacingLeft=6;overflow=hidden;whiteSpace=wrap;html=1;" vertex="1" parent="o8JEwMsqxa_T0_AtYmZZ-78">
          <mxGeometry x="30" y="60" width="220" height="27.01" as="geometry">
            <mxRectangle width="230" height="30" as="alternateBounds" />
          </mxGeometry>
        </mxCell>
        <mxCell id="pwiBvI5rpSsvWdqCSVei-10" value="&lt;span style=&quot;white-space-collapse: preserve;&quot;&gt;UnitOfMeasurementNutrients (varchar (5))&lt;/span&gt;" style="shape=partialRectangle;connectable=0;fillColor=none;top=0;left=0;bottom=0;right=0;align=left;spacingLeft=6;overflow=hidden;whiteSpace=wrap;html=1;" vertex="1" parent="o8JEwMsqxa_T0_AtYmZZ-78">
          <mxGeometry x="30" y="87.00999999999999" width="240" height="27.01" as="geometry">
            <mxRectangle width="230" height="30" as="alternateBounds" />
          </mxGeometry>
        </mxCell>
        <mxCell id="pwiBvI5rpSsvWdqCSVei-25" value="" style="group" vertex="1" connectable="0" parent="1">
          <mxGeometry x="-80" y="720" width="250" height="165" as="geometry" />
        </mxCell>
        <mxCell id="o8JEwMsqxa_T0_AtYmZZ-60" value="&lt;span style=&quot;font-weight: 400; text-align: left; text-wrap-mode: wrap;&quot;&gt;PhysicalActivityLevels&lt;/span&gt;" style="shape=table;startSize=30;container=1;collapsible=1;childLayout=tableLayout;fixedRows=1;rowLines=0;fontStyle=1;align=center;resizeLast=1;html=1;" parent="pwiBvI5rpSsvWdqCSVei-25" vertex="1">
          <mxGeometry width="250" height="160" as="geometry" />
        </mxCell>
        <mxCell id="o8JEwMsqxa_T0_AtYmZZ-61" value="" style="shape=tableRow;horizontal=0;startSize=0;swimlaneHead=0;swimlaneBody=0;fillColor=none;collapsible=0;dropTarget=0;points=[[0,0.5],[1,0.5]];portConstraint=eastwest;top=0;left=0;right=0;bottom=1;" parent="o8JEwMsqxa_T0_AtYmZZ-60" vertex="1">
          <mxGeometry y="30" width="250" height="30" as="geometry" />
        </mxCell>
        <mxCell id="o8JEwMsqxa_T0_AtYmZZ-62" value="PK" style="shape=partialRectangle;connectable=0;fillColor=none;top=0;left=0;bottom=0;right=0;fontStyle=1;overflow=hidden;whiteSpace=wrap;html=1;" parent="o8JEwMsqxa_T0_AtYmZZ-61" vertex="1">
          <mxGeometry width="30" height="30" as="geometry">
            <mxRectangle width="30" height="30" as="alternateBounds" />
          </mxGeometry>
        </mxCell>
        <mxCell id="o8JEwMsqxa_T0_AtYmZZ-63" value="&lt;span style=&quot;font-weight: 400;&quot;&gt;Id&lt;/span&gt;" style="shape=partialRectangle;connectable=0;fillColor=none;top=0;left=0;bottom=0;right=0;align=left;spacingLeft=6;fontStyle=5;overflow=hidden;whiteSpace=wrap;html=1;" parent="o8JEwMsqxa_T0_AtYmZZ-61" vertex="1">
          <mxGeometry x="30" width="220" height="30" as="geometry">
            <mxRectangle width="220" height="30" as="alternateBounds" />
          </mxGeometry>
        </mxCell>
        <mxCell id="o8JEwMsqxa_T0_AtYmZZ-64" value="" style="shape=tableRow;horizontal=0;startSize=0;swimlaneHead=0;swimlaneBody=0;fillColor=none;collapsible=0;dropTarget=0;points=[[0,0.5],[1,0.5]];portConstraint=eastwest;top=0;left=0;right=0;bottom=0;" parent="o8JEwMsqxa_T0_AtYmZZ-60" vertex="1">
          <mxGeometry y="60" width="250" height="40" as="geometry" />
        </mxCell>
        <mxCell id="o8JEwMsqxa_T0_AtYmZZ-65" value="" style="shape=partialRectangle;connectable=0;fillColor=none;top=0;left=0;bottom=0;right=0;editable=1;overflow=hidden;whiteSpace=wrap;html=1;" parent="o8JEwMsqxa_T0_AtYmZZ-64" vertex="1">
          <mxGeometry width="30" height="40" as="geometry">
            <mxRectangle width="30" height="40" as="alternateBounds" />
          </mxGeometry>
        </mxCell>
        <mxCell id="o8JEwMsqxa_T0_AtYmZZ-66" value="Name (varchar (5&lt;span style=&quot;background-color: transparent; color: light-dark(rgb(0, 0, 0), rgb(255, 255, 255));&quot;&gt;0))&lt;/span&gt;" style="shape=partialRectangle;connectable=0;fillColor=none;top=0;left=0;bottom=0;right=0;align=left;spacingLeft=6;overflow=hidden;whiteSpace=wrap;html=1;" parent="o8JEwMsqxa_T0_AtYmZZ-64" vertex="1">
          <mxGeometry x="30" width="220" height="40" as="geometry">
            <mxRectangle width="220" height="40" as="alternateBounds" />
          </mxGeometry>
        </mxCell>
        <mxCell id="o8JEwMsqxa_T0_AtYmZZ-67" value="" style="shape=tableRow;horizontal=0;startSize=0;swimlaneHead=0;swimlaneBody=0;fillColor=none;collapsible=0;dropTarget=0;points=[[0,0.5],[1,0.5]];portConstraint=eastwest;top=0;left=0;right=0;bottom=0;" parent="o8JEwMsqxa_T0_AtYmZZ-60" vertex="1">
          <mxGeometry y="100" width="250" height="40" as="geometry" />
        </mxCell>
        <mxCell id="o8JEwMsqxa_T0_AtYmZZ-68" value="" style="shape=partialRectangle;connectable=0;fillColor=none;top=0;left=0;bottom=0;right=0;editable=1;overflow=hidden;whiteSpace=wrap;html=1;" parent="o8JEwMsqxa_T0_AtYmZZ-67" vertex="1">
          <mxGeometry width="30" height="40" as="geometry">
            <mxRectangle width="30" height="40" as="alternateBounds" />
          </mxGeometry>
        </mxCell>
        <mxCell id="o8JEwMsqxa_T0_AtYmZZ-69" value="" style="shape=partialRectangle;connectable=0;fillColor=none;top=0;left=0;bottom=0;right=0;align=left;spacingLeft=6;overflow=hidden;whiteSpace=wrap;html=1;" parent="o8JEwMsqxa_T0_AtYmZZ-67" vertex="1">
          <mxGeometry x="30" width="220" height="40" as="geometry">
            <mxRectangle width="220" height="40" as="alternateBounds" />
          </mxGeometry>
        </mxCell>
        <mxCell id="o8JEwMsqxa_T0_AtYmZZ-70" value="" style="shape=tableRow;horizontal=0;startSize=0;swimlaneHead=0;swimlaneBody=0;fillColor=none;collapsible=0;dropTarget=0;points=[[0,0.5],[1,0.5]];portConstraint=eastwest;top=0;left=0;right=0;bottom=0;" parent="o8JEwMsqxa_T0_AtYmZZ-60" vertex="1">
          <mxGeometry y="140" width="250" height="20" as="geometry" />
        </mxCell>
        <mxCell id="o8JEwMsqxa_T0_AtYmZZ-71" value="" style="shape=partialRectangle;connectable=0;fillColor=none;top=0;left=0;bottom=0;right=0;editable=1;overflow=hidden;whiteSpace=wrap;html=1;" parent="o8JEwMsqxa_T0_AtYmZZ-70" vertex="1">
          <mxGeometry width="30" height="20" as="geometry">
            <mxRectangle width="30" height="20" as="alternateBounds" />
          </mxGeometry>
        </mxCell>
        <mxCell id="o8JEwMsqxa_T0_AtYmZZ-72" value="" style="shape=partialRectangle;connectable=0;fillColor=none;top=0;left=0;bottom=0;right=0;align=left;spacingLeft=6;overflow=hidden;whiteSpace=wrap;html=1;" parent="o8JEwMsqxa_T0_AtYmZZ-70" vertex="1">
          <mxGeometry x="30" width="220" height="20" as="geometry">
            <mxRectangle width="220" height="20" as="alternateBounds" />
          </mxGeometry>
        </mxCell>
        <mxCell id="pwiBvI5rpSsvWdqCSVei-24" value="Description (varchar (10&lt;span style=&quot;background-color: transparent; color: light-dark(rgb(0, 0, 0), rgb(255, 255, 255));&quot;&gt;0))&lt;/span&gt;" style="shape=partialRectangle;connectable=0;fillColor=none;top=0;left=0;bottom=0;right=0;align=left;spacingLeft=6;overflow=hidden;whiteSpace=wrap;html=1;" vertex="1" parent="pwiBvI5rpSsvWdqCSVei-25">
          <mxGeometry x="30" y="95" width="220" height="36.666666666666664" as="geometry">
            <mxRectangle width="220" height="40" as="alternateBounds" />
          </mxGeometry>
        </mxCell>
        <mxCell id="pwiBvI5rpSsvWdqCSVei-29" value="" style="edgeStyle=orthogonalEdgeStyle;fontSize=12;html=1;endArrow=ERmany;rounded=0;strokeWidth=2;startArrow=ERone;startFill=0;endFill=0;exitX=1;exitY=0.5;exitDx=0;exitDy=0;" edge="1" parent="1" source="o8JEwMsqxa_T0_AtYmZZ-61">
          <mxGeometry width="100" height="100" relative="1" as="geometry">
            <mxPoint x="270" y="965" as="sourcePoint" />
            <mxPoint x="250" y="600" as="targetPoint" />
            <Array as="points">
              <mxPoint x="280" y="765" />
              <mxPoint x="280" y="600" />
            </Array>
          </mxGeometry>
        </mxCell>
        <mxCell id="pwiBvI5rpSsvWdqCSVei-33" value="" style="edgeStyle=orthogonalEdgeStyle;fontSize=12;html=1;endArrow=ERmany;rounded=0;strokeWidth=2;startArrow=ERone;startFill=0;endFill=0;entryX=1;entryY=0.5;entryDx=0;entryDy=0;" edge="1" parent="1" target="o8JEwMsqxa_T0_AtYmZZ-80">
          <mxGeometry width="100" height="100" relative="1" as="geometry">
            <mxPoint x="250" y="560" as="sourcePoint" />
            <mxPoint x="410" y="952" as="targetPoint" />
            <Array as="points">
              <mxPoint x="320" y="560" />
              <mxPoint x="320" y="965" />
            </Array>
          </mxGeometry>
        </mxCell>
        <mxCell id="pwiBvI5rpSsvWdqCSVei-34" value="" style="edgeStyle=orthogonalEdgeStyle;fontSize=12;html=1;endArrow=ERone;rounded=0;strokeWidth=2;startArrow=ERmany;startFill=0;endFill=0;entryX=1;entryY=0.5;entryDx=0;entryDy=0;exitX=0;exitY=0.5;exitDx=0;exitDy=0;" edge="1" parent="1" source="pwiBvI5rpSsvWdqCSVei-12" target="o8JEwMsqxa_T0_AtYmZZ-57">
          <mxGeometry width="100" height="100" relative="1" as="geometry">
            <mxPoint x="80" y="550" as="sourcePoint" />
            <mxPoint x="230" y="590" as="targetPoint" />
            <Array as="points">
              <mxPoint x="-70" y="445" />
              <mxPoint x="-70" y="701" />
            </Array>
          </mxGeometry>
        </mxCell>
        <mxCell id="pwiBvI5rpSsvWdqCSVei-35" value="" style="group" vertex="1" connectable="0" parent="1">
          <mxGeometry y="400" width="250" height="210" as="geometry" />
        </mxCell>
        <mxCell id="pwiBvI5rpSsvWdqCSVei-11" value="&lt;span style=&quot;font-weight: 400; text-wrap-mode: wrap;&quot;&gt;SetNutrients&lt;/span&gt;" style="shape=table;startSize=30;container=1;collapsible=1;childLayout=tableLayout;fixedRows=1;rowLines=0;fontStyle=1;align=center;resizeLast=1;html=1;" vertex="1" parent="pwiBvI5rpSsvWdqCSVei-35">
          <mxGeometry width="250" height="210" as="geometry" />
        </mxCell>
        <mxCell id="pwiBvI5rpSsvWdqCSVei-12" value="" style="shape=tableRow;horizontal=0;startSize=0;swimlaneHead=0;swimlaneBody=0;fillColor=none;collapsible=0;dropTarget=0;points=[[0,0.5],[1,0.5]];portConstraint=eastwest;top=0;left=0;right=0;bottom=1;" vertex="1" parent="pwiBvI5rpSsvWdqCSVei-11">
          <mxGeometry y="30" width="250" height="30" as="geometry" />
        </mxCell>
        <mxCell id="pwiBvI5rpSsvWdqCSVei-13" value="PK" style="shape=partialRectangle;connectable=0;fillColor=none;top=0;left=0;bottom=0;right=0;fontStyle=1;overflow=hidden;whiteSpace=wrap;html=1;" vertex="1" parent="pwiBvI5rpSsvWdqCSVei-12">
          <mxGeometry width="30" height="30" as="geometry">
            <mxRectangle width="30" height="30" as="alternateBounds" />
          </mxGeometry>
        </mxCell>
        <mxCell id="pwiBvI5rpSsvWdqCSVei-14" value="&lt;span style=&quot;font-weight: 400;&quot;&gt;Id&lt;/span&gt;" style="shape=partialRectangle;connectable=0;fillColor=none;top=0;left=0;bottom=0;right=0;align=left;spacingLeft=6;fontStyle=5;overflow=hidden;whiteSpace=wrap;html=1;" vertex="1" parent="pwiBvI5rpSsvWdqCSVei-12">
          <mxGeometry x="30" width="220" height="30" as="geometry">
            <mxRectangle width="220" height="30" as="alternateBounds" />
          </mxGeometry>
        </mxCell>
        <mxCell id="pwiBvI5rpSsvWdqCSVei-15" value="" style="shape=tableRow;horizontal=0;startSize=0;swimlaneHead=0;swimlaneBody=0;fillColor=none;collapsible=0;dropTarget=0;points=[[0,0.5],[1,0.5]];portConstraint=eastwest;top=0;left=0;right=0;bottom=0;" vertex="1" parent="pwiBvI5rpSsvWdqCSVei-11">
          <mxGeometry y="60" width="250" height="30" as="geometry" />
        </mxCell>
        <mxCell id="pwiBvI5rpSsvWdqCSVei-16" value="" style="shape=partialRectangle;connectable=0;fillColor=none;top=0;left=0;bottom=0;right=0;editable=1;overflow=hidden;whiteSpace=wrap;html=1;" vertex="1" parent="pwiBvI5rpSsvWdqCSVei-15">
          <mxGeometry width="30" height="30" as="geometry">
            <mxRectangle width="30" height="30" as="alternateBounds" />
          </mxGeometry>
        </mxCell>
        <mxCell id="pwiBvI5rpSsvWdqCSVei-17" value="PhysicalActivityLevel (int)" style="shape=partialRectangle;connectable=0;fillColor=none;top=0;left=0;bottom=0;right=0;align=left;spacingLeft=6;overflow=hidden;whiteSpace=wrap;html=1;" vertex="1" parent="pwiBvI5rpSsvWdqCSVei-15">
          <mxGeometry x="30" width="220" height="30" as="geometry">
            <mxRectangle width="220" height="30" as="alternateBounds" />
          </mxGeometry>
        </mxCell>
        <mxCell id="pwiBvI5rpSsvWdqCSVei-18" value="" style="shape=tableRow;horizontal=0;startSize=0;swimlaneHead=0;swimlaneBody=0;fillColor=none;collapsible=0;dropTarget=0;points=[[0,0.5],[1,0.5]];portConstraint=eastwest;top=0;left=0;right=0;bottom=0;" vertex="1" parent="pwiBvI5rpSsvWdqCSVei-11">
          <mxGeometry y="90" width="250" height="30" as="geometry" />
        </mxCell>
        <mxCell id="pwiBvI5rpSsvWdqCSVei-19" value="" style="shape=partialRectangle;connectable=0;fillColor=none;top=0;left=0;bottom=0;right=0;editable=1;overflow=hidden;whiteSpace=wrap;html=1;" vertex="1" parent="pwiBvI5rpSsvWdqCSVei-18">
          <mxGeometry width="30" height="30" as="geometry">
            <mxRectangle width="30" height="30" as="alternateBounds" />
          </mxGeometry>
        </mxCell>
        <mxCell id="pwiBvI5rpSsvWdqCSVei-20" value="HightLimitOfNorm (decimal (8,2))" style="shape=partialRectangle;connectable=0;fillColor=none;top=0;left=0;bottom=0;right=0;align=left;spacingLeft=6;overflow=hidden;whiteSpace=wrap;html=1;" vertex="1" parent="pwiBvI5rpSsvWdqCSVei-18">
          <mxGeometry x="30" width="220" height="30" as="geometry">
            <mxRectangle width="220" height="30" as="alternateBounds" />
          </mxGeometry>
        </mxCell>
        <mxCell id="pwiBvI5rpSsvWdqCSVei-21" value="" style="shape=tableRow;horizontal=0;startSize=0;swimlaneHead=0;swimlaneBody=0;fillColor=none;collapsible=0;dropTarget=0;points=[[0,0.5],[1,0.5]];portConstraint=eastwest;top=0;left=0;right=0;bottom=0;" vertex="1" parent="pwiBvI5rpSsvWdqCSVei-11">
          <mxGeometry y="120" width="250" height="30" as="geometry" />
        </mxCell>
        <mxCell id="pwiBvI5rpSsvWdqCSVei-22" value="" style="shape=partialRectangle;connectable=0;fillColor=none;top=0;left=0;bottom=0;right=0;editable=1;overflow=hidden;whiteSpace=wrap;html=1;" vertex="1" parent="pwiBvI5rpSsvWdqCSVei-21">
          <mxGeometry width="30" height="30" as="geometry">
            <mxRectangle width="30" height="30" as="alternateBounds" />
          </mxGeometry>
        </mxCell>
        <mxCell id="pwiBvI5rpSsvWdqCSVei-23" value="LowerLimitOfNorm (decimal (8,2))" style="shape=partialRectangle;connectable=0;fillColor=none;top=0;left=0;bottom=0;right=0;align=left;spacingLeft=6;overflow=hidden;whiteSpace=wrap;html=1;" vertex="1" parent="pwiBvI5rpSsvWdqCSVei-21">
          <mxGeometry x="30" width="220" height="30" as="geometry">
            <mxRectangle width="220" height="30" as="alternateBounds" />
          </mxGeometry>
        </mxCell>
        <mxCell id="pwiBvI5rpSsvWdqCSVei-28" value="" style="group" vertex="1" connectable="0" parent="pwiBvI5rpSsvWdqCSVei-35">
          <mxGeometry y="180" width="250" height="30" as="geometry" />
        </mxCell>
        <mxCell id="pwiBvI5rpSsvWdqCSVei-26" value="FK" style="shape=partialRectangle;connectable=0;fillColor=none;top=1;left=1;bottom=1;right=1;fontStyle=1;overflow=hidden;whiteSpace=wrap;html=1;resizeWidth=1;resizeHeight=1;fixedWidth=1;linecap=square;" vertex="1" parent="pwiBvI5rpSsvWdqCSVei-28">
          <mxGeometry width="30" height="30" as="geometry">
            <mxRectangle width="30" height="30" as="alternateBounds" />
          </mxGeometry>
        </mxCell>
        <mxCell id="pwiBvI5rpSsvWdqCSVei-27" value="Id_physicalActivityLevels (int)" style="shape=partialRectangle;connectable=0;fillColor=none;top=1;left=1;bottom=1;right=1;align=left;spacingLeft=6;overflow=hidden;whiteSpace=wrap;html=1;" vertex="1" parent="pwiBvI5rpSsvWdqCSVei-28">
          <mxGeometry x="30" width="220" height="30" as="geometry">
            <mxRectangle width="220" height="40" as="alternateBounds" />
          </mxGeometry>
        </mxCell>
        <mxCell id="pwiBvI5rpSsvWdqCSVei-30" value="" style="group" vertex="1" connectable="0" parent="pwiBvI5rpSsvWdqCSVei-35">
          <mxGeometry y="150" width="250" height="30" as="geometry" />
        </mxCell>
        <mxCell id="pwiBvI5rpSsvWdqCSVei-31" value="FK" style="shape=partialRectangle;connectable=0;fillColor=none;top=1;left=1;bottom=1;right=1;fontStyle=1;overflow=hidden;whiteSpace=wrap;html=1;resizeWidth=1;resizeHeight=1;fixedWidth=1;linecap=square;" vertex="1" parent="pwiBvI5rpSsvWdqCSVei-30">
          <mxGeometry width="30" height="30" as="geometry">
            <mxRectangle width="30" height="30" as="alternateBounds" />
          </mxGeometry>
        </mxCell>
        <mxCell id="pwiBvI5rpSsvWdqCSVei-32" value="Id_foods_Nutrients (int)" style="shape=partialRectangle;connectable=0;fillColor=none;top=1;left=1;bottom=1;right=1;align=left;spacingLeft=6;overflow=hidden;whiteSpace=wrap;html=1;" vertex="1" parent="pwiBvI5rpSsvWdqCSVei-30">
          <mxGeometry x="30" width="220" height="30" as="geometry">
            <mxRectangle width="220" height="40" as="alternateBounds" />
          </mxGeometry>
        </mxCell>
        <mxCell id="pwiBvI5rpSsvWdqCSVei-47" value="" style="group" vertex="1" connectable="0" parent="1">
          <mxGeometry x="490" y="570" width="250" height="180" as="geometry" />
        </mxCell>
        <mxCell id="pwiBvI5rpSsvWdqCSVei-64" value="" style="group" vertex="1" connectable="0" parent="pwiBvI5rpSsvWdqCSVei-47">
          <mxGeometry y="120" width="250" height="60" as="geometry" />
        </mxCell>
        <mxCell id="pwiBvI5rpSsvWdqCSVei-61" value="Id_supplements" style="shape=partialRectangle;connectable=0;fillColor=none;top=1;left=1;bottom=1;right=1;align=left;spacingLeft=6;overflow=hidden;whiteSpace=wrap;html=1;" vertex="1" parent="pwiBvI5rpSsvWdqCSVei-64">
          <mxGeometry x="30" width="220" height="60" as="geometry">
            <mxRectangle width="220" height="40" as="alternateBounds" />
          </mxGeometry>
        </mxCell>
        <mxCell id="pwiBvI5rpSsvWdqCSVei-62" value="FK" style="shape=partialRectangle;connectable=0;fillColor=none;top=1;left=1;bottom=1;right=1;fontStyle=1;overflow=hidden;whiteSpace=wrap;html=1;resizeWidth=1;resizeHeight=1;fixedWidth=1;linecap=square;" vertex="1" parent="pwiBvI5rpSsvWdqCSVei-64">
          <mxGeometry width="30" height="60" as="geometry">
            <mxRectangle width="30" height="30" as="alternateBounds" />
          </mxGeometry>
        </mxCell>
        <mxCell id="pwiBvI5rpSsvWdqCSVei-65" value="" style="group" vertex="1" connectable="0" parent="pwiBvI5rpSsvWdqCSVei-47">
          <mxGeometry width="250" height="180" as="geometry" />
        </mxCell>
        <mxCell id="pwiBvI5rpSsvWdqCSVei-48" value="&lt;span style=&quot;font-weight: 400; text-align: left; text-wrap-mode: wrap;&quot;&gt;Nutrients_Supplements&lt;/span&gt;" style="shape=table;startSize=30;container=1;collapsible=1;childLayout=tableLayout;fixedRows=1;rowLines=0;fontStyle=1;align=center;resizeLast=1;html=1;" vertex="1" parent="pwiBvI5rpSsvWdqCSVei-65">
          <mxGeometry width="250" height="180" as="geometry" />
        </mxCell>
        <mxCell id="pwiBvI5rpSsvWdqCSVei-49" value="" style="shape=tableRow;horizontal=0;startSize=0;swimlaneHead=0;swimlaneBody=0;fillColor=none;collapsible=0;dropTarget=0;points=[[0,0.5],[1,0.5]];portConstraint=eastwest;top=0;left=0;right=0;bottom=1;" vertex="1" parent="pwiBvI5rpSsvWdqCSVei-48">
          <mxGeometry y="30" width="250" height="30" as="geometry" />
        </mxCell>
        <mxCell id="pwiBvI5rpSsvWdqCSVei-50" value="PK" style="shape=partialRectangle;connectable=0;fillColor=none;top=0;left=0;bottom=0;right=0;fontStyle=1;overflow=hidden;whiteSpace=wrap;html=1;" vertex="1" parent="pwiBvI5rpSsvWdqCSVei-49">
          <mxGeometry width="30" height="30" as="geometry">
            <mxRectangle width="30" height="30" as="alternateBounds" />
          </mxGeometry>
        </mxCell>
        <mxCell id="pwiBvI5rpSsvWdqCSVei-51" value="&lt;span style=&quot;font-weight: 400;&quot;&gt;Id&lt;/span&gt;" style="shape=partialRectangle;connectable=0;fillColor=none;top=0;left=0;bottom=0;right=0;align=left;spacingLeft=6;fontStyle=5;overflow=hidden;whiteSpace=wrap;html=1;" vertex="1" parent="pwiBvI5rpSsvWdqCSVei-49">
          <mxGeometry x="30" width="220" height="30" as="geometry">
            <mxRectangle width="220" height="30" as="alternateBounds" />
          </mxGeometry>
        </mxCell>
        <mxCell id="pwiBvI5rpSsvWdqCSVei-52" value="" style="shape=tableRow;horizontal=0;startSize=0;swimlaneHead=0;swimlaneBody=0;fillColor=none;collapsible=0;dropTarget=0;points=[[0,0.5],[1,0.5]];portConstraint=eastwest;top=0;left=0;right=0;bottom=0;" vertex="1" parent="pwiBvI5rpSsvWdqCSVei-48">
          <mxGeometry y="60" width="250" height="60" as="geometry" />
        </mxCell>
        <mxCell id="pwiBvI5rpSsvWdqCSVei-53" value="" style="shape=partialRectangle;connectable=0;fillColor=none;top=0;left=0;bottom=0;right=0;editable=1;overflow=hidden;whiteSpace=wrap;html=1;" vertex="1" parent="pwiBvI5rpSsvWdqCSVei-52">
          <mxGeometry width="30" height="60" as="geometry">
            <mxRectangle width="30" height="60" as="alternateBounds" />
          </mxGeometry>
        </mxCell>
        <mxCell id="pwiBvI5rpSsvWdqCSVei-54" value="Id_nutrients (int)" style="shape=partialRectangle;connectable=0;fillColor=none;top=0;left=0;bottom=1;right=0;align=left;spacingLeft=6;overflow=hidden;whiteSpace=wrap;html=1;" vertex="1" parent="pwiBvI5rpSsvWdqCSVei-52">
          <mxGeometry x="30" width="220" height="60" as="geometry">
            <mxRectangle width="220" height="60" as="alternateBounds" />
          </mxGeometry>
        </mxCell>
        <mxCell id="pwiBvI5rpSsvWdqCSVei-55" value="" style="shape=tableRow;horizontal=0;startSize=0;swimlaneHead=0;swimlaneBody=0;fillColor=none;collapsible=0;dropTarget=0;points=[[0,0.5],[1,0.5]];portConstraint=eastwest;top=0;left=0;right=0;bottom=0;" vertex="1" parent="pwiBvI5rpSsvWdqCSVei-48">
          <mxGeometry y="120" width="250" height="20" as="geometry" />
        </mxCell>
        <mxCell id="pwiBvI5rpSsvWdqCSVei-56" value="" style="shape=partialRectangle;connectable=0;fillColor=none;top=0;left=0;bottom=0;right=0;editable=1;overflow=hidden;whiteSpace=wrap;html=1;" vertex="1" parent="pwiBvI5rpSsvWdqCSVei-55">
          <mxGeometry width="30" height="20" as="geometry">
            <mxRectangle width="30" height="20" as="alternateBounds" />
          </mxGeometry>
        </mxCell>
        <mxCell id="pwiBvI5rpSsvWdqCSVei-57" value="" style="shape=partialRectangle;connectable=0;fillColor=none;top=0;left=0;bottom=0;right=0;align=left;spacingLeft=6;overflow=hidden;whiteSpace=wrap;html=1;" vertex="1" parent="pwiBvI5rpSsvWdqCSVei-55">
          <mxGeometry x="30" width="220" height="20" as="geometry">
            <mxRectangle width="220" height="20" as="alternateBounds" />
          </mxGeometry>
        </mxCell>
        <mxCell id="pwiBvI5rpSsvWdqCSVei-58" value="" style="shape=tableRow;horizontal=0;startSize=0;swimlaneHead=0;swimlaneBody=0;fillColor=none;collapsible=0;dropTarget=0;points=[[0,0.5],[1,0.5]];portConstraint=eastwest;top=0;left=0;right=0;bottom=0;" vertex="1" parent="pwiBvI5rpSsvWdqCSVei-48">
          <mxGeometry y="140" width="250" height="20" as="geometry" />
        </mxCell>
        <mxCell id="pwiBvI5rpSsvWdqCSVei-59" value="" style="shape=partialRectangle;connectable=0;fillColor=none;top=0;left=0;bottom=0;right=0;editable=1;overflow=hidden;whiteSpace=wrap;html=1;" vertex="1" parent="pwiBvI5rpSsvWdqCSVei-58">
          <mxGeometry width="30" height="20" as="geometry">
            <mxRectangle width="30" height="20" as="alternateBounds" />
          </mxGeometry>
        </mxCell>
        <mxCell id="pwiBvI5rpSsvWdqCSVei-60" value="(int)" style="shape=partialRectangle;connectable=0;fillColor=none;top=0;left=0;bottom=0;right=0;align=center;spacingLeft=6;overflow=hidden;whiteSpace=wrap;html=1;" vertex="1" parent="pwiBvI5rpSsvWdqCSVei-58">
          <mxGeometry x="30" width="220" height="20" as="geometry">
            <mxRectangle width="220" height="20" as="alternateBounds" />
          </mxGeometry>
        </mxCell>
        <mxCell id="pwiBvI5rpSsvWdqCSVei-63" value="FK" style="shape=partialRectangle;connectable=0;fillColor=none;top=1;left=1;bottom=1;right=1;fontStyle=1;overflow=hidden;whiteSpace=wrap;html=1;resizeWidth=1;resizeHeight=1;fixedWidth=1;linecap=square;" vertex="1" parent="pwiBvI5rpSsvWdqCSVei-65">
          <mxGeometry y="60" width="30" height="60" as="geometry">
            <mxRectangle width="30" height="30" as="alternateBounds" />
          </mxGeometry>
        </mxCell>
        <mxCell id="pwiBvI5rpSsvWdqCSVei-66" value="" style="edgeStyle=orthogonalEdgeStyle;fontSize=12;html=1;endArrow=ERmany;rounded=0;entryX=1;entryY=0.5;entryDx=0;entryDy=0;strokeWidth=2;startArrow=ERone;startFill=0;endFill=0;" edge="1" parent="1" target="w7kY199S7oR7jgKgoo_Y-48">
          <mxGeometry width="100" height="100" relative="1" as="geometry">
            <mxPoint x="490" y="650" as="sourcePoint" />
            <mxPoint x="790" y="1135" as="targetPoint" />
            <Array as="points">
              <mxPoint x="440" y="650" />
              <mxPoint x="440" y="1010" />
              <mxPoint x="640" y="1010" />
              <mxPoint x="640" y="1105" />
            </Array>
          </mxGeometry>
        </mxCell>
        <mxCell id="pwiBvI5rpSsvWdqCSVei-67" value="" style="edgeStyle=orthogonalEdgeStyle;fontSize=12;html=1;endArrow=ERmany;rounded=0;strokeWidth=2;startArrow=ERone;startFill=0;endFill=0;exitX=1;exitY=0.5;exitDx=0;exitDy=0;entryX=0;entryY=0.5;entryDx=0;entryDy=0;" edge="1" parent="1" source="pwiBvI5rpSsvWdqCSVei-58" target="w7kY199S7oR7jgKgoo_Y-61">
          <mxGeometry width="100" height="100" relative="1" as="geometry">
            <mxPoint x="800" y="1090" as="sourcePoint" />
            <mxPoint x="800" y="980" as="targetPoint" />
            <Array as="points">
              <mxPoint x="760" y="720" />
              <mxPoint x="760" y="795" />
            </Array>
          </mxGeometry>
        </mxCell>
        <mxCell id="pwiBvI5rpSsvWdqCSVei-68" value="" style="group" vertex="1" connectable="0" parent="1">
          <mxGeometry x="840" y="440" width="250" height="180" as="geometry" />
        </mxCell>
        <mxCell id="pwiBvI5rpSsvWdqCSVei-69" value="" style="group" vertex="1" connectable="0" parent="pwiBvI5rpSsvWdqCSVei-68">
          <mxGeometry y="120" width="250" height="60" as="geometry" />
        </mxCell>
        <mxCell id="pwiBvI5rpSsvWdqCSVei-70" value="Id_reviews (int)" style="shape=partialRectangle;connectable=0;fillColor=none;top=1;left=1;bottom=1;right=1;align=left;spacingLeft=6;overflow=hidden;whiteSpace=wrap;html=1;" vertex="1" parent="pwiBvI5rpSsvWdqCSVei-69">
          <mxGeometry x="30" width="220" height="60" as="geometry">
            <mxRectangle width="220" height="40" as="alternateBounds" />
          </mxGeometry>
        </mxCell>
        <mxCell id="pwiBvI5rpSsvWdqCSVei-71" value="FK" style="shape=partialRectangle;connectable=0;fillColor=none;top=1;left=1;bottom=1;right=1;fontStyle=1;overflow=hidden;whiteSpace=wrap;html=1;resizeWidth=1;resizeHeight=1;fixedWidth=1;linecap=square;" vertex="1" parent="pwiBvI5rpSsvWdqCSVei-69">
          <mxGeometry width="30" height="60" as="geometry">
            <mxRectangle width="30" height="30" as="alternateBounds" />
          </mxGeometry>
        </mxCell>
        <mxCell id="pwiBvI5rpSsvWdqCSVei-73" value="&lt;span style=&quot;font-weight: 400; text-align: left; text-wrap-mode: wrap;&quot;&gt;Supplements_Reviews&lt;/span&gt;" style="shape=table;startSize=30;container=1;collapsible=1;childLayout=tableLayout;fixedRows=1;rowLines=0;fontStyle=1;align=center;resizeLast=1;html=1;" vertex="1" parent="pwiBvI5rpSsvWdqCSVei-69">
          <mxGeometry y="-120" width="250" height="180" as="geometry" />
        </mxCell>
        <mxCell id="pwiBvI5rpSsvWdqCSVei-74" value="" style="shape=tableRow;horizontal=0;startSize=0;swimlaneHead=0;swimlaneBody=0;fillColor=none;collapsible=0;dropTarget=0;points=[[0,0.5],[1,0.5]];portConstraint=eastwest;top=0;left=0;right=0;bottom=1;" vertex="1" parent="pwiBvI5rpSsvWdqCSVei-73">
          <mxGeometry y="30" width="250" height="30" as="geometry" />
        </mxCell>
        <mxCell id="pwiBvI5rpSsvWdqCSVei-75" value="PK" style="shape=partialRectangle;connectable=0;fillColor=none;top=0;left=0;bottom=0;right=0;fontStyle=1;overflow=hidden;whiteSpace=wrap;html=1;" vertex="1" parent="pwiBvI5rpSsvWdqCSVei-74">
          <mxGeometry width="30" height="30" as="geometry">
            <mxRectangle width="30" height="30" as="alternateBounds" />
          </mxGeometry>
        </mxCell>
        <mxCell id="pwiBvI5rpSsvWdqCSVei-76" value="&lt;span style=&quot;font-weight: 400;&quot;&gt;Id&lt;/span&gt;" style="shape=partialRectangle;connectable=0;fillColor=none;top=0;left=0;bottom=0;right=0;align=left;spacingLeft=6;fontStyle=5;overflow=hidden;whiteSpace=wrap;html=1;" vertex="1" parent="pwiBvI5rpSsvWdqCSVei-74">
          <mxGeometry x="30" width="220" height="30" as="geometry">
            <mxRectangle width="220" height="30" as="alternateBounds" />
          </mxGeometry>
        </mxCell>
        <mxCell id="pwiBvI5rpSsvWdqCSVei-77" value="" style="shape=tableRow;horizontal=0;startSize=0;swimlaneHead=0;swimlaneBody=0;fillColor=none;collapsible=0;dropTarget=0;points=[[0,0.5],[1,0.5]];portConstraint=eastwest;top=0;left=0;right=0;bottom=0;" vertex="1" parent="pwiBvI5rpSsvWdqCSVei-73">
          <mxGeometry y="60" width="250" height="60" as="geometry" />
        </mxCell>
        <mxCell id="pwiBvI5rpSsvWdqCSVei-78" value="" style="shape=partialRectangle;connectable=0;fillColor=none;top=0;left=0;bottom=0;right=0;editable=1;overflow=hidden;whiteSpace=wrap;html=1;" vertex="1" parent="pwiBvI5rpSsvWdqCSVei-77">
          <mxGeometry width="30" height="60" as="geometry">
            <mxRectangle width="30" height="60" as="alternateBounds" />
          </mxGeometry>
        </mxCell>
        <mxCell id="pwiBvI5rpSsvWdqCSVei-79" value="Id_supplements (int)" style="shape=partialRectangle;connectable=0;fillColor=none;top=0;left=0;bottom=1;right=0;align=left;spacingLeft=6;overflow=hidden;whiteSpace=wrap;html=1;" vertex="1" parent="pwiBvI5rpSsvWdqCSVei-77">
          <mxGeometry x="30" width="220" height="60" as="geometry">
            <mxRectangle width="220" height="60" as="alternateBounds" />
          </mxGeometry>
        </mxCell>
        <mxCell id="pwiBvI5rpSsvWdqCSVei-80" value="" style="shape=tableRow;horizontal=0;startSize=0;swimlaneHead=0;swimlaneBody=0;fillColor=none;collapsible=0;dropTarget=0;points=[[0,0.5],[1,0.5]];portConstraint=eastwest;top=0;left=0;right=0;bottom=0;" vertex="1" parent="pwiBvI5rpSsvWdqCSVei-73">
          <mxGeometry y="120" width="250" height="20" as="geometry" />
        </mxCell>
        <mxCell id="pwiBvI5rpSsvWdqCSVei-81" value="" style="shape=partialRectangle;connectable=0;fillColor=none;top=0;left=0;bottom=0;right=0;editable=1;overflow=hidden;whiteSpace=wrap;html=1;" vertex="1" parent="pwiBvI5rpSsvWdqCSVei-80">
          <mxGeometry width="30" height="20" as="geometry">
            <mxRectangle width="30" height="20" as="alternateBounds" />
          </mxGeometry>
        </mxCell>
        <mxCell id="pwiBvI5rpSsvWdqCSVei-82" value="" style="shape=partialRectangle;connectable=0;fillColor=none;top=0;left=0;bottom=0;right=0;align=center;spacingLeft=6;overflow=hidden;whiteSpace=wrap;html=1;" vertex="1" parent="pwiBvI5rpSsvWdqCSVei-80">
          <mxGeometry x="30" width="220" height="20" as="geometry">
            <mxRectangle width="220" height="20" as="alternateBounds" />
          </mxGeometry>
        </mxCell>
        <mxCell id="pwiBvI5rpSsvWdqCSVei-83" value="" style="shape=tableRow;horizontal=0;startSize=0;swimlaneHead=0;swimlaneBody=0;fillColor=none;collapsible=0;dropTarget=0;points=[[0,0.5],[1,0.5]];portConstraint=eastwest;top=0;left=0;right=0;bottom=0;" vertex="1" parent="pwiBvI5rpSsvWdqCSVei-73">
          <mxGeometry y="140" width="250" height="20" as="geometry" />
        </mxCell>
        <mxCell id="pwiBvI5rpSsvWdqCSVei-84" value="" style="shape=partialRectangle;connectable=0;fillColor=none;top=0;left=0;bottom=0;right=0;editable=1;overflow=hidden;whiteSpace=wrap;html=1;" vertex="1" parent="pwiBvI5rpSsvWdqCSVei-83">
          <mxGeometry width="30" height="20" as="geometry">
            <mxRectangle width="30" height="20" as="alternateBounds" />
          </mxGeometry>
        </mxCell>
        <mxCell id="pwiBvI5rpSsvWdqCSVei-85" value="" style="shape=partialRectangle;connectable=0;fillColor=none;top=0;left=0;bottom=0;right=0;align=left;spacingLeft=6;overflow=hidden;whiteSpace=wrap;html=1;" vertex="1" parent="pwiBvI5rpSsvWdqCSVei-83">
          <mxGeometry x="30" width="220" height="20" as="geometry">
            <mxRectangle width="220" height="20" as="alternateBounds" />
          </mxGeometry>
        </mxCell>
        <mxCell id="pwiBvI5rpSsvWdqCSVei-72" value="" style="group" vertex="1" connectable="0" parent="pwiBvI5rpSsvWdqCSVei-68">
          <mxGeometry width="250" height="180" as="geometry" />
        </mxCell>
        <mxCell id="pwiBvI5rpSsvWdqCSVei-86" value="FK" style="shape=partialRectangle;connectable=0;fillColor=none;top=1;left=1;bottom=1;right=1;fontStyle=1;overflow=hidden;whiteSpace=wrap;html=1;resizeWidth=1;resizeHeight=1;fixedWidth=1;linecap=square;" vertex="1" parent="pwiBvI5rpSsvWdqCSVei-72">
          <mxGeometry y="60" width="30" height="60" as="geometry">
            <mxRectangle width="30" height="30" as="alternateBounds" />
          </mxGeometry>
        </mxCell>
        <mxCell id="pwiBvI5rpSsvWdqCSVei-87" value="" style="edgeStyle=orthogonalEdgeStyle;fontSize=12;html=1;endArrow=ERmany;rounded=0;strokeWidth=2;startArrow=ERone;startFill=0;endFill=0;entryX=1;entryY=0.5;entryDx=0;entryDy=0;" edge="1" parent="1" target="o8JEwMsqxa_T0_AtYmZZ-2">
          <mxGeometry width="100" height="100" relative="1" as="geometry">
            <mxPoint x="1090" y="590" as="sourcePoint" />
            <mxPoint x="1250" y="911" as="targetPoint" />
            <Array as="points">
              <mxPoint x="1160" y="590" />
              <mxPoint x="1160" y="1045" />
            </Array>
          </mxGeometry>
        </mxCell>
        <mxCell id="pwiBvI5rpSsvWdqCSVei-88" value="" style="edgeStyle=orthogonalEdgeStyle;fontSize=12;html=1;endArrow=ERmany;rounded=0;strokeWidth=2;startArrow=ERone;startFill=0;endFill=0;exitX=0;exitY=0.5;exitDx=0;exitDy=0;entryX=1;entryY=0.5;entryDx=0;entryDy=0;" edge="1" parent="1" source="pwiBvI5rpSsvWdqCSVei-77" target="w7kY199S7oR7jgKgoo_Y-61">
          <mxGeometry width="100" height="100" relative="1" as="geometry">
            <mxPoint x="1170" y="390" as="sourcePoint" />
            <mxPoint x="1100" y="855" as="targetPoint" />
            <Array as="points">
              <mxPoint x="800" y="530" />
              <mxPoint x="800" y="680" />
              <mxPoint x="1130" y="680" />
              <mxPoint x="1130" y="795" />
            </Array>
          </mxGeometry>
        </mxCell>
        <mxCell id="pwiBvI5rpSsvWdqCSVei-93" value="" style="group" vertex="1" connectable="0" parent="1">
          <mxGeometry x="400" y="320" width="230" height="150" as="geometry" />
        </mxCell>
        <mxCell id="w7kY199S7oR7jgKgoo_Y-99" value="&lt;span style=&quot;font-weight: 400; text-wrap-mode: wrap;&quot;&gt;NewConsumptions&lt;/span&gt;" style="shape=table;startSize=30;container=1;collapsible=1;childLayout=tableLayout;fixedRows=1;rowLines=0;fontStyle=1;align=center;resizeLast=1;html=1;" parent="pwiBvI5rpSsvWdqCSVei-93" vertex="1">
          <mxGeometry width="230.00000000000003" height="150" as="geometry" />
        </mxCell>
        <mxCell id="w7kY199S7oR7jgKgoo_Y-100" value="" style="shape=tableRow;horizontal=0;startSize=0;swimlaneHead=0;swimlaneBody=0;fillColor=none;collapsible=0;dropTarget=0;points=[[0,0.5],[1,0.5]];portConstraint=eastwest;top=0;left=0;right=0;bottom=1;" parent="w7kY199S7oR7jgKgoo_Y-99" vertex="1">
          <mxGeometry y="30" width="230.00000000000003" height="30" as="geometry" />
        </mxCell>
        <mxCell id="w7kY199S7oR7jgKgoo_Y-101" value="PK" style="shape=partialRectangle;connectable=0;fillColor=none;top=0;left=0;bottom=0;right=0;fontStyle=1;overflow=hidden;whiteSpace=wrap;html=1;" parent="w7kY199S7oR7jgKgoo_Y-100" vertex="1">
          <mxGeometry width="30" height="30" as="geometry">
            <mxRectangle width="30" height="30" as="alternateBounds" />
          </mxGeometry>
        </mxCell>
        <mxCell id="w7kY199S7oR7jgKgoo_Y-102" value="&lt;span style=&quot;font-weight: 400;&quot;&gt;Id&lt;/span&gt;" style="shape=partialRectangle;connectable=0;fillColor=none;top=0;left=0;bottom=0;right=0;align=left;spacingLeft=6;fontStyle=5;overflow=hidden;whiteSpace=wrap;html=1;" parent="w7kY199S7oR7jgKgoo_Y-100" vertex="1">
          <mxGeometry x="30" width="200.00000000000003" height="30" as="geometry">
            <mxRectangle width="200.00000000000003" height="30" as="alternateBounds" />
          </mxGeometry>
        </mxCell>
        <mxCell id="w7kY199S7oR7jgKgoo_Y-103" value="" style="shape=tableRow;horizontal=0;startSize=0;swimlaneHead=0;swimlaneBody=0;fillColor=none;collapsible=0;dropTarget=0;points=[[0,0.5],[1,0.5]];portConstraint=eastwest;top=0;left=0;right=0;bottom=0;" parent="w7kY199S7oR7jgKgoo_Y-99" vertex="1">
          <mxGeometry y="60" width="230.00000000000003" height="30" as="geometry" />
        </mxCell>
        <mxCell id="w7kY199S7oR7jgKgoo_Y-104" value="" style="shape=partialRectangle;connectable=0;fillColor=none;top=0;left=0;bottom=0;right=0;editable=1;overflow=hidden;whiteSpace=wrap;html=1;" parent="w7kY199S7oR7jgKgoo_Y-103" vertex="1">
          <mxGeometry width="30" height="30" as="geometry">
            <mxRectangle width="30" height="30" as="alternateBounds" />
          </mxGeometry>
        </mxCell>
        <mxCell id="w7kY199S7oR7jgKgoo_Y-105" value="Id_currentDailyConsumptions (int)" style="shape=partialRectangle;connectable=0;fillColor=none;top=0;left=0;bottom=1;right=0;align=left;spacingLeft=6;overflow=hidden;whiteSpace=wrap;html=1;" parent="w7kY199S7oR7jgKgoo_Y-103" vertex="1">
          <mxGeometry x="30" width="200.00000000000003" height="30" as="geometry">
            <mxRectangle width="200.00000000000003" height="30" as="alternateBounds" />
          </mxGeometry>
        </mxCell>
        <mxCell id="w7kY199S7oR7jgKgoo_Y-106" value="" style="shape=tableRow;horizontal=0;startSize=0;swimlaneHead=0;swimlaneBody=0;fillColor=none;collapsible=0;dropTarget=0;points=[[0,0.5],[1,0.5]];portConstraint=eastwest;top=0;left=0;right=0;bottom=0;" parent="w7kY199S7oR7jgKgoo_Y-99" vertex="1">
          <mxGeometry y="90" width="230.00000000000003" height="30" as="geometry" />
        </mxCell>
        <mxCell id="w7kY199S7oR7jgKgoo_Y-107" value="" style="shape=partialRectangle;connectable=0;fillColor=none;top=0;left=0;bottom=0;right=0;editable=1;overflow=hidden;whiteSpace=wrap;html=1;" parent="w7kY199S7oR7jgKgoo_Y-106" vertex="1">
          <mxGeometry width="30" height="30" as="geometry">
            <mxRectangle width="30" height="30" as="alternateBounds" />
          </mxGeometry>
        </mxCell>
        <mxCell id="w7kY199S7oR7jgKgoo_Y-108" value="Id_nutrients_Supplements (int)" style="shape=partialRectangle;connectable=0;fillColor=none;top=0;left=0;bottom=1;right=0;align=left;spacingLeft=6;overflow=hidden;whiteSpace=wrap;html=1;" parent="w7kY199S7oR7jgKgoo_Y-106" vertex="1">
          <mxGeometry x="30" width="200.00000000000003" height="30" as="geometry">
            <mxRectangle width="200.00000000000003" height="30" as="alternateBounds" />
          </mxGeometry>
        </mxCell>
        <mxCell id="w7kY199S7oR7jgKgoo_Y-109" value="" style="shape=tableRow;horizontal=0;startSize=0;swimlaneHead=0;swimlaneBody=0;fillColor=none;collapsible=0;dropTarget=0;points=[[0,0.5],[1,0.5]];portConstraint=eastwest;top=0;left=0;right=0;bottom=0;" parent="w7kY199S7oR7jgKgoo_Y-99" vertex="1">
          <mxGeometry y="120" width="230.00000000000003" height="30" as="geometry" />
        </mxCell>
        <mxCell id="w7kY199S7oR7jgKgoo_Y-110" value="" style="shape=partialRectangle;connectable=0;fillColor=none;top=0;left=0;bottom=0;right=0;editable=1;overflow=hidden;whiteSpace=wrap;html=1;" parent="w7kY199S7oR7jgKgoo_Y-109" vertex="1">
          <mxGeometry width="30" height="30" as="geometry">
            <mxRectangle width="30" height="30" as="alternateBounds" />
          </mxGeometry>
        </mxCell>
        <mxCell id="w7kY199S7oR7jgKgoo_Y-111" value="" style="shape=partialRectangle;connectable=0;fillColor=none;top=0;left=0;bottom=0;right=0;align=left;spacingLeft=6;overflow=hidden;whiteSpace=wrap;html=1;" parent="w7kY199S7oR7jgKgoo_Y-109" vertex="1">
          <mxGeometry x="30" width="200.00000000000003" height="30" as="geometry">
            <mxRectangle width="200.00000000000003" height="30" as="alternateBounds" />
          </mxGeometry>
        </mxCell>
        <mxCell id="pwiBvI5rpSsvWdqCSVei-90" value="FK" style="shape=partialRectangle;connectable=0;fillColor=none;top=1;left=1;bottom=1;right=1;fontStyle=1;overflow=hidden;whiteSpace=wrap;html=1;resizeWidth=1;resizeHeight=1;fixedWidth=1;linecap=square;" vertex="1" parent="pwiBvI5rpSsvWdqCSVei-93">
          <mxGeometry y="60" width="32.85714285714286" height="30" as="geometry">
            <mxRectangle width="30" height="30" as="alternateBounds" />
          </mxGeometry>
        </mxCell>
        <mxCell id="pwiBvI5rpSsvWdqCSVei-91" value="FK" style="shape=partialRectangle;connectable=0;fillColor=none;top=1;left=1;bottom=1;right=1;fontStyle=1;overflow=hidden;whiteSpace=wrap;html=1;resizeWidth=1;resizeHeight=1;fixedWidth=1;linecap=square;" vertex="1" parent="pwiBvI5rpSsvWdqCSVei-93">
          <mxGeometry y="90" width="32.85714285714286" height="30" as="geometry">
            <mxRectangle width="30" height="30" as="alternateBounds" />
          </mxGeometry>
        </mxCell>
        <mxCell id="pwiBvI5rpSsvWdqCSVei-94" value="" style="edgeStyle=orthogonalEdgeStyle;fontSize=12;html=1;endArrow=ERmany;rounded=0;strokeWidth=2;startArrow=ERone;startFill=0;endFill=0;entryX=0;entryY=0.5;entryDx=0;entryDy=0;" edge="1" parent="1" target="pwiBvI5rpSsvWdqCSVei-49">
          <mxGeometry width="100" height="100" relative="1" as="geometry">
            <mxPoint x="400" y="420" as="sourcePoint" />
            <mxPoint x="400" y="660" as="targetPoint" />
            <Array as="points">
              <mxPoint x="360" y="420" />
              <mxPoint x="360" y="615" />
            </Array>
          </mxGeometry>
        </mxCell>
      </root>
    </mxGraphModel>
  </diagram>
</mxfile>
